<?xml version="1.0" encoding="utf-8" ?><svg version="1.1" xmlns = 'http://www.w3.org/2000/svg'><defs><font id='web' horiz-adv-x="1000">
<font-face font-family="web" descent="-477" cap-height="1434" units-per-em="2048" bbox="-408,-385,2367,1906" x-height="1040" ascent="1571" />
<missing-glyph horiz-adv-x="584" d="" /><glyph horiz-adv-x="496" d="" unicode=" " />
<glyph horiz-adv-x="627" d="M 426 227 L 426 0 L 201 0 L 201 227 L 426 227 Z M 201 1434 L 426 1434 L 358 373 L 268 373 L 201 1434 Z" unicode="!" />
<glyph horiz-adv-x="829" d="M 125 1434 L 358 1434 L 276 911 L 207 911 L 125 1434 Z M 471 1434 L 705 1434 L 623 911 L 553 911 L 471 1434 Z" unicode="&#x22;" />
<glyph horiz-adv-x="1167" d="M 866 854 L 1069 854 L 1053 741 L 852 741 L 813 487 L 1016 487 L 999 377 L 799 377 L 748 0 L 629 0 L 680 377 L 422 377 L 369 0 L 252 0 L 303 377 L 100 377 L 117 487 L 319 487 L 354 741 L 152 741 L 168 854 L 369 854 L 422 1229 L 543 1229 L 489 854 L 748 854 L 799 1229 L 918 1229 L 866 854 Z M 696 487 L 729 741 L 473 741 L 438 487 L 696 487 Z" unicode="#" />
<glyph horiz-adv-x="1167" d="M 641 760 C 793 731 902 684 969 620 C 1035 555 1069 474 1069 377 C 1069 272 1031 182 955 108 C 879 34 774 -6 641 -12 L 641 -213 L 532 -213 L 532 -12 C 415 -6 322 20 253 67 C 184 114 128 165 84 219 L 197 328 C 230 284 275 240 333 197 C 390 154 456 131 532 129 L 532 604 C 388 632 285 678 222 740 C 158 802 127 879 127 971 C 127 1059 161 1140 229 1213 C 297 1286 398 1328 532 1339 L 532 1509 L 641 1509 L 641 1339 C 737 1331 816 1311 879 1279 C 941 1247 992 1207 1030 1161 L 932 1044 C 903 1078 863 1113 813 1147 C 762 1181 705 1200 641 1202 L 641 760 Z M 299 991 C 299 936 317 890 355 854 C 393 817 452 790 532 774 L 532 1202 C 456 1197 399 1175 359 1135 C 319 1095 299 1047 299 991 Z M 641 129 C 726 131 790 153 833 196 C 875 239 897 294 897 362 C 897 428 876 478 834 514 C 792 550 728 575 641 590 L 641 129 Z" unicode="$" />
<glyph horiz-adv-x="1751" d="M 475 1401 C 563 1401 640 1369 704 1305 C 768 1241 801 1163 801 1073 C 801 984 768 908 704 844 C 640 780 563 748 475 748 C 386 748 310 780 246 844 C 182 908 150 984 150 1073 C 150 1163 182 1241 246 1305 C 310 1369 386 1401 475 1401 Z M 475 881 C 527 881 570 899 605 936 C 639 972 657 1019 657 1075 C 657 1132 639 1178 605 1214 C 570 1250 527 1268 475 1268 C 423 1268 379 1250 345 1214 C 310 1178 293 1132 293 1075 C 293 1019 310 972 345 936 C 379 899 423 881 475 881 Z M 1282 631 C 1370 631 1447 599 1511 535 C 1575 471 1608 393 1608 303 C 1608 214 1575 137 1511 73 C 1447 9 1370 -23 1282 -23 C 1193 -23 1116 9 1052 73 C 988 137 956 214 956 303 C 956 393 988 471 1052 535 C 1116 599 1193 631 1282 631 Z M 1282 111 C 1334 111 1377 129 1412 166 C 1446 202 1464 249 1464 305 C 1464 362 1446 408 1412 444 C 1377 480 1334 498 1282 498 C 1230 498 1186 480 1152 444 C 1117 408 1100 362 1100 305 C 1100 249 1117 202 1152 166 C 1186 129 1230 111 1282 111 Z M 1305 1376 L 1444 1376 L 449 0 L 311 0 L 1305 1376 Z" unicode="%" />
<glyph horiz-adv-x="1309" d="M 1300 145 L 1300 -8 C 1276 -10 1257 -12 1243 -14 C 1229 -15 1212 -16 1194 -16 C 1128 -15 1074 -1 1032 25 C 990 52 947 88 903 133 C 855 87 797 49 729 20 C 661 -8 586 -23 506 -23 C 375 -23 268 16 186 94 C 104 172 63 270 63 387 C 63 482 91 567 147 642 C 203 716 287 777 399 823 C 349 888 312 946 289 996 C 265 1046 254 1099 254 1155 C 254 1238 285 1310 349 1370 C 413 1430 496 1460 598 1460 C 700 1460 781 1431 843 1374 C 905 1316 936 1244 936 1157 C 936 1076 910 1004 860 941 C 810 878 736 824 639 778 L 928 369 C 972 429 1007 496 1033 572 C 1058 648 1077 725 1090 805 L 1247 762 C 1230 677 1203 592 1167 507 C 1130 422 1081 341 1020 264 C 1041 233 1068 205 1101 180 C 1134 154 1172 141 1214 141 C 1226 141 1239 141 1251 141 C 1263 141 1280 143 1300 145 Z M 563 887 C 632 915 684 954 720 1002 C 756 1050 774 1100 774 1151 C 774 1201 757 1243 723 1275 C 689 1307 646 1323 596 1323 C 547 1323 507 1307 476 1277 C 445 1247 430 1207 430 1159 C 430 1142 432 1125 436 1107 C 440 1089 446 1071 455 1053 C 467 1027 481 1000 499 974 C 517 947 538 918 563 887 Z M 539 127 C 591 127 639 135 685 153 C 730 170 772 199 811 240 L 471 713 C 397 680 342 638 307 586 C 271 534 254 475 254 408 C 254 329 279 262 331 208 C 383 154 452 127 539 127 Z" unicode="&#x26;" />
<glyph horiz-adv-x="481" d="M 125 1434 L 358 1434 L 276 911 L 207 911 L 125 1434 Z" unicode="'" />
<glyph horiz-adv-x="682" d="M 344 565 C 344 408 366 258 410 115 C 454 -27 525 -167 621 -305 L 485 -305 C 377 -171 296 -32 243 111 C 190 255 164 407 164 565 C 164 721 190 871 243 1016 C 295 1160 376 1300 485 1434 L 618 1434 C 523 1294 454 1153 410 1011 C 366 869 344 720 344 565 Z" unicode="(" />
<glyph horiz-adv-x="682" d="M 197 1434 C 305 1300 386 1160 439 1016 C 491 871 518 721 518 565 C 518 407 491 255 438 111 C 385 -32 305 -171 197 -305 L 61 -305 C 157 -167 227 -27 271 115 C 315 258 338 408 338 565 C 338 720 316 869 272 1011 C 228 1153 158 1294 63 1434 L 197 1434 Z" unicode=")" />
<glyph horiz-adv-x="1096" d="M 870 1262 L 926 1094 L 598 1049 L 838 823 L 692 715 L 551 1022 L 406 715 L 260 823 L 504 1049 L 172 1094 L 227 1262 L 522 1106 L 461 1434 L 637 1434 L 575 1106 L 870 1262 Z" unicode="*" />
<glyph horiz-adv-x="1167" d="M 1067 625 L 1067 477 L 657 477 L 657 68 L 510 68 L 510 477 L 100 477 L 100 625 L 510 625 L 510 1034 L 657 1034 L 657 625 L 1067 625 Z" unicode="+" />
<glyph horiz-adv-x="584" d="M 408 240 L 408 29 L 250 -268 L 154 -268 L 279 6 L 180 6 L 180 240 L 408 240 Z" unicode="," />
<glyph horiz-adv-x="702" d="M 594 625 L 594 463 L 109 463 L 109 625 L 594 625 Z" unicode="-" />
<glyph horiz-adv-x="584" d="M 408 240 L 408 0 L 178 0 L 178 240 L 408 240 Z" unicode="." />
<glyph horiz-adv-x="1047" d="M 815 1434 L 956 1434 L 129 -317 L -12 -317 L 815 1434 Z" unicode="/" />
<glyph horiz-adv-x="1167" d="M 586 1401 C 740 1401 864 1338 956 1212 C 1048 1086 1094 911 1094 688 C 1094 463 1047 288 954 164 C 860 39 738 -23 586 -23 C 432 -23 308 38 215 162 C 122 286 76 461 76 688 C 76 911 121 1086 213 1212 C 304 1338 428 1401 586 1401 Z M 586 121 C 683 121 760 168 816 263 C 872 357 901 498 901 686 C 901 873 873 1014 817 1110 C 761 1205 684 1253 586 1253 C 484 1253 405 1205 349 1109 C 293 1013 266 872 266 686 C 266 498 294 357 350 263 C 406 168 485 121 586 121 Z" unicode="0" />
<glyph horiz-adv-x="1167" d="M 995 145 L 995 0 L 252 0 L 252 145 L 545 145 L 545 1163 L 242 1040 L 242 1161 C 331 1207 399 1244 446 1272 C 492 1300 546 1337 606 1384 L 723 1384 L 723 145 L 995 145 Z" unicode="1" />
<glyph horiz-adv-x="1167" d="M 1061 164 L 1061 0 L 92 0 L 92 127 C 128 163 167 197 208 230 C 249 263 290 295 330 326 C 370 357 411 388 451 420 C 491 451 531 483 569 516 C 656 588 725 662 775 738 C 825 814 850 893 850 977 C 850 1065 824 1132 774 1177 C 724 1222 656 1245 571 1245 C 491 1245 424 1221 369 1175 C 314 1128 274 1058 250 965 L 78 1020 C 116 1145 179 1240 265 1304 C 351 1368 454 1401 575 1401 C 709 1401 820 1362 908 1286 C 996 1210 1040 1105 1040 973 C 1040 869 1010 773 950 687 C 890 601 818 522 735 451 C 673 399 609 349 542 301 C 475 253 414 208 358 164 L 1061 164 Z" unicode="2" />
<glyph horiz-adv-x="1167" d="M 774 721 C 869 691 940 647 987 589 C 1033 530 1057 464 1057 391 C 1057 271 1010 172 916 94 C 822 16 697 -23 543 -23 C 427 -23 326 4 242 59 C 157 114 90 191 41 291 L 199 367 C 234 295 281 237 341 193 C 401 149 471 127 551 127 C 646 127 722 150 780 197 C 837 244 866 308 866 389 C 866 464 839 523 786 566 C 733 609 657 631 559 631 L 369 631 L 369 782 L 551 782 C 632 782 699 804 752 850 C 804 895 831 953 831 1024 C 831 1084 808 1136 762 1181 C 716 1226 652 1249 571 1249 C 503 1249 443 1227 391 1185 C 338 1142 294 1083 258 1008 L 94 1071 C 141 1173 206 1254 289 1313 C 371 1371 466 1401 573 1401 C 704 1401 811 1366 894 1298 C 976 1229 1018 1142 1018 1036 C 1018 968 996 906 952 852 C 908 797 849 753 774 721 Z" unicode="3" />
<glyph horiz-adv-x="1167" d="M 1145 481 L 1145 336 L 901 336 L 901 -8 L 733 -8 L 733 336 L 53 336 L 53 453 L 729 1399 L 901 1399 L 901 481 L 1145 481 Z M 236 481 L 735 481 L 735 1178 L 236 481 Z" unicode="4" />
<glyph horiz-adv-x="1167" d="M 614 915 C 755 915 868 873 952 790 C 1036 706 1079 599 1079 469 C 1079 330 1030 213 932 119 C 834 24 708 -23 555 -23 C 443 -23 348 3 268 56 C 188 109 124 185 76 283 L 231 354 C 266 286 311 231 365 189 C 419 147 485 127 563 127 C 665 127 745 157 803 219 C 861 280 891 359 891 457 C 891 552 863 627 807 682 C 751 736 678 764 588 764 C 526 764 468 751 415 727 C 362 703 316 669 276 625 L 147 707 L 215 1376 L 1020 1376 L 1001 1214 L 354 1214 L 305 803 C 343 832 390 858 446 881 C 501 903 557 915 614 915 Z" unicode="5" />
<glyph horiz-adv-x="1167" d="M 635 893 C 772 893 882 853 966 774 C 1050 694 1092 591 1092 465 C 1092 325 1046 209 955 116 C 863 23 748 -23 610 -23 C 452 -23 326 36 234 154 C 142 272 96 437 96 647 C 96 877 146 1061 247 1197 C 348 1333 479 1401 641 1401 C 747 1401 838 1375 913 1323 C 988 1271 1043 1204 1079 1122 L 922 1049 C 894 1109 858 1158 812 1196 C 766 1234 709 1253 643 1253 C 536 1253 450 1206 386 1113 C 321 1020 284 894 276 735 C 330 782 387 820 446 849 C 505 878 568 893 635 893 Z M 602 121 C 693 121 766 152 822 216 C 877 279 905 359 905 457 C 905 542 877 612 822 666 C 766 720 698 748 618 748 C 551 748 490 733 435 703 C 380 673 327 632 276 578 C 284 424 317 310 377 234 C 436 158 511 121 602 121 Z" unicode="6" />
<glyph horiz-adv-x="1167" d="M 1092 1376 L 1092 1255 C 948 1049 829 850 733 658 C 637 466 574 246 545 0 L 338 0 C 376 228 451 448 565 660 C 679 872 794 1057 911 1214 L 88 1214 L 106 1376 L 1092 1376 Z" unicode="7" />
<glyph horiz-adv-x="1167" d="M 791 721 C 889 685 964 636 1015 576 C 1066 516 1092 443 1092 358 C 1092 249 1046 158 956 84 C 865 10 740 -27 582 -27 C 418 -27 293 8 206 78 C 119 148 76 237 76 346 C 76 424 100 496 150 560 C 199 624 273 675 371 711 C 292 741 230 784 186 840 C 141 895 119 960 119 1034 C 119 1138 160 1225 242 1295 C 324 1365 438 1401 584 1401 C 727 1401 838 1367 918 1300 C 998 1233 1038 1149 1038 1049 C 1038 977 1016 913 974 855 C 931 797 870 752 791 721 Z M 584 113 C 684 113 763 136 819 182 C 875 228 903 284 903 352 C 903 412 872 468 812 522 C 752 575 646 618 496 651 C 406 621 343 580 307 528 C 271 475 254 418 254 356 C 254 282 282 223 339 179 C 396 135 478 113 584 113 Z M 664 764 C 746 802 799 846 824 896 C 849 946 862 997 862 1049 C 862 1107 837 1157 789 1199 C 740 1241 671 1262 582 1262 C 494 1262 426 1240 377 1198 C 327 1156 303 1107 303 1051 C 303 993 330 938 386 887 C 441 836 534 795 664 764 Z" unicode="8" />
<glyph horiz-adv-x="1167" d="M 559 1401 C 715 1401 839 1342 931 1226 C 1023 1109 1069 945 1069 733 C 1069 500 1018 316 917 180 C 816 44 686 -23 526 -23 C 421 -23 331 2 257 53 C 182 103 125 172 86 260 L 244 332 C 272 270 310 220 357 182 C 403 144 459 125 524 125 C 630 125 715 171 781 264 C 847 357 882 482 887 639 C 833 592 777 554 717 525 C 657 495 591 481 520 481 C 387 481 279 521 197 601 C 115 681 74 786 74 915 C 74 1057 121 1173 216 1264 C 311 1355 425 1401 559 1401 Z M 547 627 C 618 627 682 642 739 673 C 795 704 845 746 889 799 C 882 949 849 1062 791 1138 C 732 1214 657 1253 565 1253 C 475 1253 402 1221 345 1158 C 288 1094 260 1014 260 918 C 260 834 287 765 343 710 C 398 654 466 627 547 627 Z" unicode="9" />
<glyph horiz-adv-x="688" d="M 461 240 L 461 0 L 233 0 L 233 240 L 461 240 Z M 461 1040 L 461 801 L 233 801 L 233 1040 L 461 1040 Z" unicode=":" />
<glyph horiz-adv-x="688" d="M 461 240 L 461 29 L 301 -268 L 205 -268 L 330 6 L 233 6 L 233 240 L 461 240 Z M 461 1040 L 461 801 L 233 801 L 233 1040 L 461 1040 Z" unicode=";" />
<glyph horiz-adv-x="1167" d="M 1010 166 L 1010 -10 L 119 502 L 119 602 L 1010 1110 L 1010 934 L 322 551 L 1010 166 Z" unicode="&#x3C;" />
<glyph horiz-adv-x="1167" d="M 1057 455 L 1057 305 L 113 305 L 113 455 L 1057 455 Z M 1057 803 L 1057 653 L 113 653 L 113 803 L 1057 803 Z" unicode="=" />
<glyph horiz-adv-x="1167" d="M 1049 602 L 1049 502 L 158 -10 L 158 166 L 846 551 L 158 934 L 158 1110 L 1049 602 Z" unicode="&#x3E;" />
<glyph horiz-adv-x="1100" d="M 567 1458 C 703 1458 810 1419 886 1341 C 962 1263 1001 1174 1001 1075 C 1001 1035 995 995 983 955 C 971 915 953 879 930 848 C 904 813 870 778 828 744 C 785 710 735 671 678 627 C 650 606 628 583 610 559 C 592 535 584 507 584 477 L 584 373 L 430 373 L 430 512 C 430 558 441 599 465 633 C 488 667 514 698 543 725 C 566 746 592 768 621 791 C 650 813 680 837 711 862 C 739 885 762 915 779 951 C 796 987 805 1025 805 1063 C 805 1139 781 1199 735 1241 C 689 1283 625 1305 545 1305 C 467 1305 402 1279 350 1227 C 298 1175 264 1104 250 1014 L 80 1053 C 104 1181 159 1281 245 1352 C 331 1422 438 1458 567 1458 Z M 627 227 L 627 0 L 399 0 L 399 227 L 627 227 Z" unicode="?" />
<glyph horiz-adv-x="1972" d="M 1100 1380 C 1300 1380 1471 1321 1614 1203 C 1757 1085 1829 931 1829 743 C 1829 631 1808 521 1766 415 C 1724 308 1662 222 1581 156 C 1540 123 1493 98 1441 82 C 1389 65 1343 57 1303 57 C 1253 57 1213 70 1183 96 C 1153 122 1133 170 1124 240 C 1074 176 1025 132 977 107 C 929 82 878 70 825 70 C 749 70 688 100 644 160 C 600 220 578 298 578 393 C 578 552 622 691 711 810 C 800 929 905 989 1026 989 C 1076 989 1122 977 1166 955 C 1209 933 1244 884 1272 809 L 1307 956 L 1458 956 L 1313 399 C 1305 372 1301 347 1299 324 C 1297 300 1296 280 1296 264 C 1296 239 1305 218 1323 202 C 1341 186 1365 178 1393 178 C 1485 178 1563 234 1627 348 C 1690 462 1722 587 1722 723 C 1722 891 1661 1025 1539 1127 C 1417 1229 1268 1280 1094 1280 C 853 1280 655 1197 500 1032 C 345 866 268 670 268 442 C 268 233 331 70 457 -47 C 583 -164 748 -223 952 -223 C 1030 -223 1110 -214 1191 -196 C 1272 -178 1354 -152 1438 -117 L 1468 -213 C 1386 -247 1297 -274 1201 -294 C 1104 -314 1010 -324 920 -324 C 688 -324 501 -250 358 -102 C 214 46 143 223 143 430 C 143 697 237 922 425 1105 C 613 1288 838 1380 1100 1380 Z M 1112 350 C 1146 414 1170 474 1184 532 C 1197 590 1204 643 1204 692 C 1204 736 1189 775 1160 809 C 1130 843 1093 860 1049 860 C 1020 860 989 851 957 835 C 924 818 896 795 874 766 C 834 712 804 653 784 587 C 764 521 754 460 754 403 C 754 339 768 290 796 254 C 824 218 862 201 909 201 C 945 201 983 215 1021 243 C 1059 271 1089 307 1112 350 Z" unicode="@" />
<glyph horiz-adv-x="1167" d="M 698 1434 L 1169 0 L 973 0 L 836 420 L 305 420 L 176 0 L -2 0 L 473 1434 L 698 1434 Z M 354 575 L 786 575 L 569 1260 L 354 575 Z" unicode="A" />
<glyph horiz-adv-x="1294" d="M 907 756 C 998 733 1071 691 1126 629 C 1180 567 1208 488 1208 391 C 1208 323 1195 262 1169 210 C 1143 157 1105 114 1055 82 C 1012 54 961 34 901 20 C 841 6 774 0 702 0 L 164 0 L 164 1434 L 705 1434 C 777 1434 841 1426 897 1410 C 953 1394 1000 1371 1040 1341 C 1078 1310 1108 1272 1131 1226 C 1153 1180 1165 1128 1165 1069 C 1165 993 1141 928 1095 873 C 1049 817 986 778 907 756 Z M 686 160 C 788 160 867 181 922 224 C 976 267 1004 328 1004 408 C 1004 494 974 559 916 602 C 858 644 774 666 664 666 L 358 666 L 358 160 L 686 160 Z M 664 821 C 759 821 832 840 884 880 C 935 919 961 977 961 1055 C 961 1126 936 1180 888 1218 C 839 1255 770 1274 682 1274 L 358 1274 L 358 821 L 664 821 Z" unicode="B" />
<glyph horiz-adv-x="1260" d="M 1065 485 L 1219 444 C 1179 286 1111 168 1015 92 C 919 15 804 -23 672 -23 C 495 -23 352 41 243 171 C 134 301 80 482 80 715 C 80 933 134 1112 244 1250 C 353 1388 497 1458 676 1458 C 815 1458 930 1417 1020 1335 C 1110 1253 1170 1139 1202 993 L 1008 965 C 990 1061 952 1141 894 1204 C 835 1266 761 1298 672 1298 C 556 1298 464 1246 394 1143 C 324 1040 289 898 289 717 C 289 528 325 384 398 284 C 470 184 564 135 678 135 C 774 135 856 164 922 224 C 988 284 1036 371 1065 485 Z" unicode="C" />
<glyph horiz-adv-x="1366" d="M 1024 1311 C 1109 1243 1174 1158 1219 1057 C 1263 955 1286 842 1286 717 C 1286 608 1269 508 1237 418 C 1204 328 1157 252 1096 190 C 1036 129 965 82 881 49 C 797 16 704 0 600 0 L 164 0 L 164 1434 L 612 1434 C 699 1434 777 1423 845 1402 C 913 1381 973 1351 1024 1311 Z M 997 367 C 1023 413 1043 465 1056 523 C 1068 581 1075 645 1075 717 C 1075 780 1070 837 1060 889 C 1050 941 1034 988 1014 1030 C 976 1110 921 1171 849 1212 C 777 1253 690 1274 590 1274 L 358 1274 L 358 160 L 594 160 C 686 160 767 177 835 212 C 903 246 957 298 997 367 Z" unicode="D" />
<glyph horiz-adv-x="1155" d="M 1104 164 L 1104 0 L 164 0 L 164 1434 L 1085 1434 L 1085 1270 L 358 1270 L 358 813 L 870 813 L 870 651 L 358 651 L 358 164 L 1104 164 Z" unicode="E" />
<glyph horiz-adv-x="1100" d="M 1081 1434 L 1081 1270 L 358 1270 L 358 797 L 889 797 L 889 637 L 358 637 L 358 0 L 164 0 L 164 1434 L 1081 1434 Z" unicode="F" />
<glyph horiz-adv-x="1358" d="M 1231 719 L 1231 0 L 1128 0 L 1071 174 C 1032 116 979 69 911 31 C 843 -6 763 -25 670 -25 C 494 -25 352 40 243 170 C 134 300 80 481 80 715 C 80 933 135 1112 247 1250 C 358 1388 502 1458 680 1458 C 820 1458 936 1421 1026 1348 C 1116 1274 1181 1170 1219 1036 L 1034 991 C 1027 1014 1019 1037 1010 1059 C 1000 1081 991 1101 981 1120 C 949 1176 909 1219 859 1251 C 809 1282 749 1298 678 1298 C 559 1298 464 1246 394 1143 C 324 1040 289 898 289 717 C 289 527 324 383 396 283 C 467 183 565 133 690 133 C 796 133 881 161 945 218 C 1008 274 1041 351 1044 449 C 1044 449 1044 467 1045 503 C 1046 538 1047 557 1047 559 L 684 559 L 684 719 L 1231 719 Z" unicode="G" />
<glyph horiz-adv-x="1368" d="M 1204 1434 L 1204 0 L 1010 0 L 1010 655 L 358 655 L 358 0 L 164 0 L 164 1434 L 358 1434 L 358 817 L 1010 817 L 1010 1434 L 1204 1434 Z" unicode="H" />
<glyph horiz-adv-x="535" d="M 365 1434 L 365 0 L 170 0 L 170 1434 L 365 1434 Z" unicode="I" />
<glyph horiz-adv-x="788" d="M 635 1434 L 635 463 C 635 382 627 311 611 249 C 595 187 570 136 537 96 C 501 54 458 22 408 2 C 358 -18 299 -29 231 -29 C 193 -29 156 -26 119 -20 C 82 -14 44 -6 6 2 L 29 170 C 64 162 96 155 124 149 C 152 143 180 141 207 141 C 297 141 359 167 391 220 C 423 272 440 353 440 461 L 440 1434 L 635 1434 Z" unicode="J" />
<glyph horiz-adv-x="1282" d="M 772 911 L 1296 0 L 1079 0 L 639 760 L 358 403 L 358 0 L 164 0 L 164 1434 L 358 1434 L 358 627 L 977 1434 L 1180 1434 L 772 911 Z" unicode="K" />
<glyph horiz-adv-x="1038" d="M 1020 164 L 1020 0 L 164 0 L 164 1434 L 358 1434 L 358 164 L 1020 164 Z" unicode="L" />
<glyph horiz-adv-x="1714" d="M 1550 1434 L 1550 0 L 1362 0 L 1362 1245 L 911 0 L 772 0 L 328 1257 L 328 0 L 164 0 L 164 1434 L 444 1434 L 860 274 L 1272 1434 L 1550 1434 Z" unicode="M" />
<glyph horiz-adv-x="1382" d="M 1219 1434 L 1219 0 L 1055 0 L 328 1223 L 328 0 L 164 0 L 164 1434 L 410 1434 L 1055 346 L 1055 1434 L 1219 1434 Z" unicode="N" />
<glyph horiz-adv-x="1360" d="M 1100 1272 C 1156 1208 1200 1128 1232 1034 C 1264 939 1280 833 1280 717 C 1280 609 1266 510 1239 420 C 1211 330 1174 255 1126 193 C 1072 123 1007 70 931 32 C 855 -6 771 -25 680 -25 C 586 -25 502 -5 426 33 C 350 71 286 125 233 195 C 184 260 146 337 120 425 C 93 513 80 610 80 717 C 80 833 95 939 127 1034 C 158 1129 202 1208 260 1272 C 313 1331 375 1377 446 1409 C 516 1441 594 1458 680 1458 C 765 1458 843 1442 914 1410 C 984 1378 1046 1332 1100 1272 Z M 680 133 C 800 133 895 183 965 283 C 1034 383 1069 528 1069 717 C 1069 900 1035 1043 967 1145 C 899 1247 803 1298 680 1298 C 556 1298 460 1246 392 1143 C 323 1040 289 898 289 717 C 289 527 324 383 394 283 C 464 183 559 133 680 133 Z" unicode="O" />
<glyph horiz-adv-x="1223" d="M 1042 1329 C 1089 1291 1124 1243 1148 1187 C 1172 1130 1184 1066 1184 995 C 1184 935 1172 879 1149 829 C 1126 779 1093 736 1051 700 C 1008 664 955 636 893 615 C 831 594 760 584 682 584 L 358 584 L 358 0 L 164 0 L 164 1434 L 686 1434 C 762 1434 830 1425 890 1407 C 949 1389 1000 1363 1042 1329 Z M 666 748 C 767 748 843 770 895 814 C 947 858 973 925 973 1014 C 973 1092 946 1154 893 1202 C 840 1250 763 1274 662 1274 L 358 1274 L 358 748 L 666 748 Z" unicode="P" />
<glyph horiz-adv-x="1360" d="M 1298 -92 L 1298 -274 L 1270 -274 C 1144 -274 1047 -251 979 -206 C 910 -160 853 -95 807 -10 C 787 -14 767 -18 746 -21 C 724 -23 702 -25 680 -25 C 586 -25 502 -5 426 33 C 350 71 286 125 233 195 C 184 260 146 337 120 425 C 93 513 80 610 80 717 C 80 833 95 939 127 1034 C 158 1129 202 1208 260 1272 C 313 1331 375 1377 446 1409 C 516 1441 594 1458 680 1458 C 764 1458 842 1442 913 1410 C 984 1378 1046 1333 1098 1274 C 1156 1210 1200 1130 1232 1035 C 1264 939 1280 833 1280 717 C 1280 557 1250 420 1192 307 C 1134 193 1055 109 956 53 C 984 9 1023 -26 1072 -52 C 1121 -78 1179 -92 1245 -92 L 1298 -92 Z M 680 133 C 801 133 896 183 965 283 C 1034 383 1069 528 1069 717 C 1069 900 1035 1043 967 1145 C 899 1247 803 1298 680 1298 C 556 1298 460 1246 392 1143 C 323 1040 289 898 289 717 C 289 527 324 383 394 283 C 464 183 559 133 680 133 Z" unicode="Q" />
<glyph horiz-adv-x="1309" d="M 924 666 L 1217 0 L 1006 0 L 737 625 L 358 625 L 358 0 L 164 0 L 164 1434 L 664 1434 C 742 1434 811 1426 872 1412 C 933 1398 986 1376 1030 1348 C 1084 1314 1124 1270 1150 1216 C 1176 1162 1190 1100 1190 1030 C 1190 947 1168 874 1125 811 C 1081 748 1014 700 924 666 Z M 655 782 C 763 782 845 802 900 842 C 955 882 983 945 983 1030 C 983 1107 955 1167 899 1210 C 843 1252 763 1274 659 1274 L 358 1274 L 358 782 L 655 782 Z" unicode="R" />
<glyph horiz-adv-x="1200" d="M 844 766 C 944 734 1019 688 1069 628 C 1119 567 1145 489 1145 393 C 1145 273 1094 173 994 94 C 893 14 767 -25 616 -25 C 489 -25 380 0 288 50 C 196 100 120 173 59 270 L 209 395 C 249 321 305 259 377 209 C 449 158 531 133 621 133 C 712 133 788 154 850 198 C 911 241 942 298 942 369 C 942 437 922 488 883 522 C 843 556 780 584 692 606 C 655 615 617 624 578 633 C 538 641 499 651 461 662 C 353 691 269 738 209 802 C 149 866 119 946 119 1044 C 119 1111 136 1174 171 1233 C 206 1292 253 1340 311 1376 C 353 1402 399 1423 451 1437 C 502 1451 557 1458 616 1458 C 732 1458 830 1436 911 1392 C 991 1348 1057 1291 1108 1219 L 963 1094 C 928 1150 881 1198 821 1238 C 761 1278 692 1298 612 1298 C 523 1298 452 1275 399 1230 C 345 1185 319 1130 319 1065 C 319 999 341 948 386 912 C 430 876 491 850 569 834 C 617 823 664 812 712 801 C 760 790 804 778 844 766 Z" unicode="S" />
<glyph horiz-adv-x="1075" d="M 1057 1434 L 1057 1270 L 635 1270 L 635 0 L 440 0 L 440 1270 L 18 1270 L 18 1434 L 1057 1434 Z" unicode="T" />
<glyph horiz-adv-x="1337" d="M 1182 1434 L 1182 537 C 1182 489 1179 443 1174 400 C 1169 357 1160 317 1147 279 C 1114 179 1057 103 977 52 C 896 0 792 -25 666 -25 C 533 -25 426 4 344 62 C 262 120 206 205 178 317 C 170 347 164 381 160 417 C 156 453 154 490 154 528 L 154 1434 L 350 1434 L 350 539 C 350 491 353 446 359 405 C 365 364 376 328 391 297 C 415 245 451 205 498 177 C 545 149 605 135 678 135 C 750 135 809 148 857 174 C 904 200 941 237 967 285 C 983 317 994 355 1002 397 C 1010 439 1014 487 1014 541 L 1014 1434 L 1182 1434 Z" unicode="U" />
<glyph horiz-adv-x="1163" d="M 991 1434 L 1163 1434 L 672 0 L 496 0 L -2 1434 L 199 1434 L 594 256 L 991 1434 Z" unicode="V" />
<glyph horiz-adv-x="1745" d="M 1565 1434 L 1733 1434 L 1354 0 L 1186 0 L 877 1114 L 567 0 L 385 0 L 14 1434 L 205 1434 L 496 281 L 809 1434 L 965 1434 L 1274 291 L 1565 1434 Z" unicode="W" />
<glyph horiz-adv-x="1188" d="M 705 748 L 1184 0 L 958 0 L 575 606 L 197 0 L 6 0 L 485 737 L 39 1434 L 264 1434 L 614 877 L 963 1434 L 1153 1434 L 705 748 Z" unicode="X" />
<glyph horiz-adv-x="1171" d="M 995 1434 L 1182 1434 L 684 569 L 684 0 L 489 0 L 489 565 L -10 1434 L 207 1434 L 602 731 L 995 1434 Z" unicode="Y" />
<glyph horiz-adv-x="1104" d="M 1069 164 L 1069 0 L 31 0 L 31 125 L 821 1270 L 80 1270 L 80 1434 L 1067 1434 L 1067 1315 L 270 164 L 1069 164 Z" unicode="Z" />
<glyph horiz-adv-x="641" d="M 578 -186 L 578 -305 L 154 -305 L 154 1434 L 575 1434 L 575 1315 L 326 1315 L 326 -186 L 578 -186 Z" unicode="[" />
<glyph horiz-adv-x="1047" d="M 250 1434 L 1077 -317 L 936 -317 L 109 1434 L 250 1434 Z" unicode="\" />
<glyph horiz-adv-x="641" d="M 492 1434 L 492 -305 L 68 -305 L 68 -186 L 319 -186 L 319 1315 L 70 1315 L 70 1434 L 492 1434 Z" unicode="]" />
<glyph horiz-adv-x="1167" d="M 633 1460 L 1040 776 L 864 776 L 584 1257 L 301 776 L 125 776 L 532 1460 L 633 1460 Z" unicode="^" />
<glyph horiz-adv-x="1006" d="M 969 -139 L 969 -233 L 37 -233 L 37 -139 L 969 -139 Z" unicode="_" />
<glyph horiz-adv-x="942" d="M 498 1434 L 678 1149 L 547 1149 L 279 1423 L 279 1434 L 498 1434 Z" unicode="`" />
<glyph horiz-adv-x="1047" d="M 948 10 L 948 0 L 770 0 C 769 12 766 30 760 52 C 754 74 750 98 750 125 C 708 87 656 53 596 25 C 535 -3 474 -18 412 -18 C 314 -18 232 6 166 56 C 100 105 68 174 68 264 C 68 377 123 467 233 533 C 343 599 512 645 741 670 L 741 737 C 741 797 720 842 679 874 C 638 906 578 922 500 922 C 440 922 391 906 353 875 C 315 843 288 797 274 737 L 109 770 C 131 859 176 929 244 981 C 312 1033 402 1059 514 1059 C 599 1059 669 1047 725 1025 C 780 1003 822 972 852 934 C 872 906 888 874 898 838 C 908 802 913 761 913 717 L 913 217 C 913 157 917 113 925 83 C 933 53 941 29 948 10 Z M 453 125 C 509 125 561 134 608 153 C 654 171 699 199 741 236 L 741 553 C 578 530 455 498 372 456 C 289 414 248 358 248 289 C 248 235 264 195 297 167 C 329 139 381 125 453 125 Z" unicode="a" />
<glyph horiz-adv-x="1085" d="M 612 1059 C 727 1059 823 1012 899 918 C 975 824 1014 692 1014 522 C 1014 353 972 220 889 124 C 806 28 699 -20 569 -20 C 501 -20 443 -2 395 31 C 346 65 304 106 270 152 L 225 0 L 129 0 C 131 23 133 51 135 85 C 137 118 139 146 139 170 L 139 1434 L 315 1434 L 315 924 C 365 972 413 1006 460 1027 C 507 1048 558 1059 612 1059 Z M 563 111 C 650 111 716 147 760 219 C 804 291 827 392 827 522 C 827 636 806 730 764 803 C 722 876 657 913 571 913 C 519 913 470 901 425 877 C 380 853 343 828 315 803 L 315 360 C 315 280 338 219 386 176 C 434 132 493 111 563 111 Z" unicode="b" />
<glyph horiz-adv-x="987" d="M 813 342 L 942 301 C 918 207 871 130 801 70 C 731 10 645 -20 543 -20 C 405 -20 292 28 204 124 C 116 220 72 352 72 522 C 72 671 114 798 199 902 C 284 1006 396 1059 535 1059 C 643 1059 732 1031 802 975 C 871 919 916 841 938 741 L 772 713 C 760 779 734 830 696 866 C 657 902 606 920 543 920 C 449 920 378 883 329 811 C 280 738 256 638 256 510 C 256 390 280 296 329 226 C 378 156 451 121 547 121 C 618 121 675 139 719 177 C 762 215 793 270 813 342 Z" unicode="c" />
<glyph horiz-adv-x="1085" d="M 946 1434 L 946 0 L 778 0 L 778 123 C 737 84 691 51 640 23 C 589 -4 531 -18 465 -18 C 340 -18 243 32 175 134 C 106 236 72 364 72 520 C 72 692 113 824 196 918 C 279 1012 377 1059 489 1059 C 546 1059 598 1048 645 1027 C 692 1005 734 974 770 932 L 770 1434 L 946 1434 Z M 524 127 C 572 127 616 137 658 158 C 699 179 737 206 772 238 L 772 815 C 739 841 703 863 663 882 C 623 901 578 911 528 911 C 440 911 373 876 327 806 C 281 736 258 642 258 524 C 258 388 281 287 329 223 C 376 159 441 127 524 127 Z" unicode="d" />
<glyph horiz-adv-x="1061" d="M 868 301 L 997 231 C 958 163 901 104 825 54 C 749 4 656 -20 547 -20 C 402 -20 287 28 201 126 C 115 224 72 349 72 502 C 72 659 115 791 203 898 C 291 1005 405 1059 545 1059 C 627 1059 700 1042 763 1009 C 826 976 877 927 915 862 C 941 817 961 765 975 707 C 988 649 995 585 995 516 L 995 498 L 250 498 C 250 379 279 286 338 220 C 396 154 471 121 563 121 C 637 121 699 138 750 173 C 801 207 840 250 868 301 Z M 256 621 L 819 621 C 818 710 796 782 752 838 C 708 894 643 922 557 922 C 463 922 390 891 337 831 C 283 770 256 700 256 621 Z" unicode="e" />
<glyph horiz-adv-x="590" d="M 623 1432 L 623 1290 C 607 1292 589 1294 567 1296 C 545 1298 526 1300 510 1300 C 468 1300 432 1292 403 1276 C 374 1260 360 1228 360 1180 L 360 1040 L 565 1040 L 565 913 L 367 913 L 367 0 L 193 0 L 193 913 L 29 913 L 29 1040 L 193 1040 L 193 1161 C 193 1203 198 1240 210 1272 C 221 1303 236 1330 256 1354 C 281 1383 312 1405 348 1421 C 384 1436 423 1444 463 1444 C 485 1444 511 1443 539 1441 C 567 1439 595 1436 623 1432 Z" unicode="f" />
<glyph horiz-adv-x="1051" d="M 1028 1059 L 1028 870 L 1016 870 C 999 884 980 895 958 902 C 936 909 913 913 891 913 C 884 913 874 912 862 911 C 849 910 840 909 834 907 C 850 879 864 849 874 817 C 884 785 889 751 889 715 C 889 617 853 538 781 476 C 709 414 614 383 494 383 C 464 383 435 386 408 392 C 380 398 354 405 330 414 C 298 402 276 388 264 371 C 252 353 246 335 246 317 C 246 286 257 265 280 255 C 303 244 334 238 373 236 L 678 221 C 796 216 880 191 930 145 C 980 99 1006 40 1006 -33 C 1006 -120 963 -193 878 -253 C 793 -312 668 -342 502 -342 C 342 -342 223 -318 145 -270 C 67 -222 29 -160 29 -86 C 29 -45 44 -6 74 29 C 104 65 149 93 209 113 C 164 133 133 156 115 180 C 97 204 88 234 88 268 C 88 302 101 337 127 371 C 153 405 194 433 250 455 C 198 486 159 523 135 566 C 110 609 98 657 98 709 C 98 807 135 890 209 958 C 283 1025 381 1059 504 1059 C 554 1059 604 1051 652 1036 C 700 1020 740 998 774 969 C 808 1000 847 1023 889 1037 C 931 1051 977 1059 1028 1059 Z M 520 -219 C 626 -219 704 -204 756 -175 C 808 -146 834 -107 834 -57 C 834 -15 818 15 787 35 C 756 55 703 66 627 70 L 295 82 C 260 65 235 46 220 26 C 204 5 197 -20 197 -51 C 197 -106 223 -148 276 -176 C 328 -204 410 -219 520 -219 Z M 496 504 C 563 504 616 523 655 562 C 693 601 713 653 713 719 C 713 784 693 837 654 877 C 614 917 562 938 496 938 C 429 938 376 917 337 876 C 298 835 279 782 279 717 C 279 651 298 599 337 561 C 375 523 428 504 496 504 Z" unicode="g" />
<glyph horiz-adv-x="1098" d="M 969 711 L 969 0 L 791 0 L 791 707 C 791 767 776 815 748 853 C 720 890 669 909 596 909 C 534 909 478 891 428 855 C 378 819 341 791 315 770 L 315 0 L 139 0 L 139 1434 L 315 1434 L 315 891 C 347 923 390 959 444 999 C 498 1039 572 1059 666 1059 C 735 1059 792 1043 838 1012 C 883 980 915 943 934 901 C 947 870 956 838 961 806 C 966 774 969 742 969 711 Z" unicode="h" />
<glyph horiz-adv-x="471" d="M 322 1040 L 322 0 L 147 0 L 147 1040 L 322 1040 Z M 324 1434 L 324 1233 L 145 1233 L 145 1434 L 324 1434 Z" unicode="i" />
<glyph horiz-adv-x="477" d="M 334 1040 L 334 -33 C 334 -81 328 -123 316 -159 C 304 -195 288 -225 268 -250 C 242 -281 211 -304 175 -318 C 139 -332 101 -340 63 -340 C 41 -340 15 -339 -16 -337 C -47 -335 -75 -332 -100 -328 L -100 -188 C -87 -190 -68 -192 -44 -194 C -19 -196 0 -197 14 -197 C 54 -197 88 -188 116 -170 C 144 -152 158 -114 158 -57 L 158 1040 L 334 1040 Z M 336 1434 L 336 1233 L 158 1233 L 158 1434 L 336 1434 Z" unicode="j" />
<glyph horiz-adv-x="995" d="M 618 666 L 997 0 L 807 0 L 496 541 L 315 336 L 315 0 L 139 0 L 139 1434 L 315 1434 L 315 510 L 766 1040 L 952 1040 L 618 666 Z" unicode="k" />
<glyph horiz-adv-x="471" d="M 322 1434 L 322 0 L 147 0 L 147 1434 L 322 1434 Z" unicode="l" />
<glyph horiz-adv-x="1683" d="M 1552 717 L 1552 0 L 1376 0 L 1376 721 C 1376 773 1363 818 1338 854 C 1312 890 1266 909 1198 909 C 1146 909 1095 891 1046 857 C 996 823 958 795 932 774 L 932 0 L 758 0 L 758 721 C 758 773 745 818 721 854 C 696 890 650 909 582 909 C 528 909 476 891 426 856 C 375 820 338 792 315 772 L 315 0 L 139 0 L 139 1040 L 311 1040 L 311 891 C 343 924 385 960 437 1000 C 489 1039 559 1059 647 1059 C 713 1059 768 1043 812 1012 C 856 980 889 937 911 881 C 953 923 1000 963 1053 1001 C 1106 1039 1178 1059 1268 1059 C 1332 1059 1385 1043 1429 1013 C 1472 982 1503 945 1522 903 C 1534 873 1542 842 1546 809 C 1550 776 1552 745 1552 717 Z" unicode="m" />
<glyph horiz-adv-x="1098" d="M 969 711 L 969 0 L 791 0 L 791 707 C 791 767 776 815 748 853 C 720 890 669 909 596 909 C 534 909 478 891 428 855 C 378 819 341 791 315 770 L 315 0 L 139 0 L 139 1040 L 311 1040 L 311 887 C 343 919 386 956 442 997 C 498 1038 572 1059 666 1059 C 735 1059 792 1043 838 1012 C 883 980 915 943 934 901 C 947 870 956 838 961 806 C 966 774 969 742 969 711 Z" unicode="n" />
<glyph horiz-adv-x="1075" d="M 537 1059 C 680 1059 794 1009 879 910 C 963 811 1006 682 1006 522 C 1006 359 963 228 877 129 C 791 29 678 -20 537 -20 C 398 -20 286 29 200 129 C 114 228 72 359 72 522 C 72 677 113 805 197 907 C 281 1008 394 1059 537 1059 Z M 537 121 C 629 121 699 155 747 225 C 795 295 819 394 819 522 C 819 648 795 746 747 816 C 699 885 629 920 537 920 C 441 920 371 884 325 812 C 279 740 256 643 256 522 C 256 397 279 299 325 228 C 371 156 442 121 537 121 Z" unicode="o" />
<glyph horiz-adv-x="1085" d="M 625 1059 C 749 1059 844 1006 912 900 C 980 794 1014 668 1014 522 C 1014 350 975 217 898 123 C 821 29 722 -18 602 -18 C 552 -18 501 -6 450 16 C 398 38 353 70 315 111 L 315 -340 L 139 -340 L 139 1040 L 311 1040 L 311 911 C 353 959 400 995 453 1021 C 506 1046 563 1059 625 1059 Z M 565 127 C 653 127 718 160 762 228 C 805 296 827 390 827 512 C 827 652 803 753 757 816 C 710 879 645 911 563 911 C 517 911 472 899 430 875 C 388 851 349 824 315 793 L 315 227 C 347 203 384 181 428 159 C 471 137 517 127 565 127 Z" unicode="p" />
<glyph horiz-adv-x="1085" d="M 860 1040 L 956 1040 C 954 1019 951 992 949 960 C 947 927 946 899 946 877 L 946 -340 L 770 -340 L 770 115 C 721 70 671 37 619 15 C 567 -7 515 -18 463 -18 C 349 -18 256 29 182 123 C 108 217 72 347 72 514 C 72 684 114 818 198 914 C 282 1010 386 1059 510 1059 C 580 1059 637 1046 683 1020 C 729 994 773 953 815 897 L 860 1040 Z M 510 129 C 565 129 614 138 658 157 C 701 175 739 196 772 219 L 772 688 C 772 764 748 823 700 863 C 652 903 594 924 526 924 C 438 924 372 887 326 813 C 280 739 258 637 258 508 C 258 400 278 309 318 237 C 358 165 422 129 510 129 Z" unicode="q" />
<glyph horiz-adv-x="698" d="M 684 1057 L 684 856 L 676 856 C 656 860 639 863 625 865 C 611 867 596 868 582 868 C 507 868 448 849 404 811 C 360 773 330 743 315 723 L 315 0 L 139 0 L 139 1040 L 305 1040 L 305 836 C 337 882 386 931 453 981 C 519 1031 596 1057 684 1057 Z" unicode="r" />
<glyph horiz-adv-x="926" d="M 582 590 C 681 567 756 533 807 487 C 857 441 883 379 883 301 C 883 209 842 132 761 71 C 679 10 579 -20 461 -20 C 367 -20 286 -1 217 36 C 148 73 91 131 47 211 L 176 301 C 210 241 251 196 299 165 C 346 134 406 119 479 119 C 543 119 597 133 642 162 C 686 190 709 229 709 279 C 709 317 697 346 674 368 C 651 389 616 406 569 420 C 536 428 497 437 451 445 C 405 453 364 463 326 475 C 239 503 178 540 143 586 C 107 631 90 688 90 758 C 90 802 100 843 122 880 C 144 916 172 948 207 975 C 243 1003 283 1024 329 1038 C 375 1052 420 1059 465 1059 C 549 1059 624 1042 688 1010 C 752 977 806 924 850 850 L 711 762 C 687 809 654 848 612 878 C 570 908 523 924 469 924 C 411 924 361 910 321 882 C 280 854 260 816 260 770 C 260 734 272 704 296 682 C 320 659 353 643 395 633 C 417 627 445 620 477 613 C 509 606 544 598 582 590 Z" unicode="s" />
<glyph horiz-adv-x="651" d="M 604 137 L 604 6 C 573 -2 545 -8 521 -12 C 496 -16 470 -18 444 -18 C 359 -18 295 4 252 50 C 209 96 188 164 188 256 C 188 388 188 510 189 621 C 190 732 191 829 193 913 L 31 913 L 31 1040 L 193 1040 L 215 1372 L 365 1372 L 365 1040 L 604 1040 L 604 913 L 365 913 L 365 256 C 365 213 375 181 397 159 C 418 137 455 127 508 127 C 518 127 534 128 556 130 C 578 132 594 135 604 137 Z" unicode="t" />
<glyph horiz-adv-x="1096" d="M 954 1040 L 954 0 L 784 0 L 784 154 C 746 110 698 71 640 35 C 582 0 512 -18 430 -18 C 362 -18 306 -2 260 28 C 214 59 182 96 164 139 C 150 169 142 201 138 233 C 134 265 133 298 133 330 L 133 1040 L 307 1040 L 307 334 C 307 274 321 226 350 189 C 378 151 429 133 502 133 C 554 133 605 148 657 180 C 708 211 749 241 780 270 L 780 1040 L 954 1040 Z" unicode="u" />
<glyph horiz-adv-x="924" d="M 762 1040 L 918 1040 L 532 0 L 385 0 L 4 1040 L 188 1040 L 475 221 L 762 1040 Z" unicode="v" />
<glyph horiz-adv-x="1393" d="M 1223 1040 L 1374 1040 L 1053 0 L 918 0 L 696 799 L 467 0 L 332 0 L 16 1040 L 201 1040 L 418 266 L 639 1040 L 774 1040 L 995 258 L 1223 1040 Z" unicode="w" />
<glyph horiz-adv-x="942" d="M 569 545 L 936 0 L 731 0 L 451 426 L 176 0 L 4 0 L 371 537 L 33 1040 L 238 1040 L 487 657 L 739 1040 L 909 1040 L 569 545 Z" unicode="x" />
<glyph horiz-adv-x="922" d="M 760 1040 L 918 1040 L 526 -35 C 486 -143 439 -220 385 -268 C 331 -316 261 -340 174 -340 C 153 -340 132 -338 112 -336 C 92 -334 71 -330 51 -326 L 51 -178 C 73 -182 95 -185 117 -189 C 138 -193 156 -195 172 -195 C 233 -195 279 -179 311 -148 C 343 -116 368 -68 387 -2 C 387 -1 376 27 356 84 C 335 141 324 171 324 174 L 4 1040 L 190 1040 L 479 223 L 760 1040 Z" unicode="y" />
<glyph horiz-adv-x="850" d="M 823 133 L 823 0 L 31 0 L 31 98 L 590 911 L 70 911 L 70 1040 L 809 1040 L 809 946 L 248 133 L 823 133 Z" unicode="z" />
<glyph horiz-adv-x="743" d="M 657 -199 L 657 -305 L 592 -305 C 488 -305 407 -279 351 -227 C 294 -175 266 -92 266 20 L 266 305 C 266 368 255 418 234 454 C 213 490 173 508 115 508 L 61 508 L 61 621 L 115 621 C 173 621 213 638 234 674 C 255 709 266 759 266 823 L 266 1108 C 266 1220 294 1303 351 1355 C 407 1407 488 1434 592 1434 L 657 1434 L 657 1327 L 604 1327 C 544 1327 503 1312 480 1284 C 457 1255 446 1209 446 1145 L 446 885 C 446 795 422 723 376 667 C 329 611 266 576 188 563 C 266 552 329 518 376 462 C 422 406 446 333 446 244 L 446 -16 C 446 -80 457 -126 480 -155 C 503 -184 544 -199 604 -199 L 657 -199 Z" unicode="{" />
<glyph horiz-adv-x="594" d="M 371 1434 L 371 -317 L 223 -317 L 223 1434 L 371 1434 Z" unicode="|" />
<glyph horiz-adv-x="743" d="M 682 621 L 682 508 L 629 508 C 569 508 529 490 508 454 C 487 418 477 368 477 305 L 477 20 C 477 -92 448 -175 392 -227 C 335 -279 255 -305 152 -305 L 86 -305 L 86 -199 L 139 -199 C 198 -199 239 -184 262 -155 C 285 -126 297 -80 297 -16 L 297 244 C 297 333 320 406 367 462 C 413 518 476 552 555 563 C 476 576 413 611 367 667 C 320 723 297 795 297 885 L 297 1145 C 297 1209 285 1255 262 1284 C 239 1312 198 1327 139 1327 L 86 1327 L 86 1434 L 152 1434 C 255 1434 335 1407 392 1355 C 448 1303 477 1220 477 1108 L 477 823 C 477 759 487 709 508 674 C 529 638 569 621 629 621 L 682 621 Z" unicode="}" />
<glyph horiz-adv-x="1167" d="M 913 760 L 1063 760 C 1061 638 1036 538 988 462 C 940 386 873 348 788 348 C 731 348 683 361 645 389 C 606 416 573 447 545 483 C 519 515 493 544 468 570 C 442 595 413 608 381 608 C 333 608 300 583 282 535 C 264 487 255 423 254 344 L 104 344 C 106 467 130 567 178 643 C 225 719 292 758 379 758 C 435 758 482 745 518 721 C 554 696 589 663 623 623 C 648 591 673 562 699 536 C 725 509 752 496 782 496 C 828 496 860 517 880 561 C 899 605 910 671 913 760 Z" unicode="~" />
<glyph horiz-adv-x="496" d="" unicode=" " />
<glyph horiz-adv-x="627" d="M 358 760 L 426 -315 L 201 -315 L 268 760 L 358 760 Z M 426 1118 L 426 891 L 201 891 L 201 1118 L 426 1118 Z" unicode="¡" />
<glyph horiz-adv-x="1167" d="M 877 510 L 999 469 C 980 393 942 327 885 270 C 828 213 755 180 666 170 L 666 -66 L 555 -66 L 555 170 C 437 182 342 233 268 322 C 194 411 158 531 158 682 C 158 811 193 925 264 1023 C 335 1121 432 1176 555 1190 L 555 1391 L 666 1391 L 666 1188 C 760 1178 835 1146 890 1092 C 945 1037 980 970 995 891 L 838 866 C 831 898 816 935 792 977 C 768 1019 726 1046 666 1057 L 666 299 C 732 307 780 334 811 378 C 842 422 864 466 877 510 Z M 334 670 C 334 574 352 492 389 426 C 425 359 481 317 555 301 L 555 1057 C 475 1041 419 996 385 921 C 351 846 334 762 334 670 Z" unicode="¢" />
<glyph horiz-adv-x="1167" d="M 1006 315 L 1143 221 C 1093 133 1037 70 973 33 C 909 -4 840 -23 764 -23 C 686 -23 617 -9 558 18 C 499 46 442 81 387 125 C 358 82 319 47 269 19 C 219 -9 161 -23 96 -23 L 96 135 C 165 147 219 178 258 229 C 297 279 317 358 317 465 C 317 487 316 510 314 532 C 312 554 309 575 305 596 L 109 596 L 109 702 L 279 702 C 265 749 253 796 242 844 C 230 892 225 943 225 997 C 225 1103 263 1197 341 1279 C 418 1360 529 1401 674 1401 C 769 1401 847 1387 909 1361 C 970 1334 1032 1292 1096 1235 L 977 1110 C 949 1138 908 1169 853 1202 C 798 1234 741 1251 682 1251 C 605 1251 542 1228 493 1184 C 444 1140 420 1080 420 1004 C 420 954 426 905 438 856 C 450 807 461 756 471 702 L 868 702 L 868 596 L 487 596 C 487 585 488 574 488 564 C 488 553 489 542 489 532 C 489 488 487 441 483 391 C 479 341 464 288 440 231 C 475 203 518 180 568 160 C 618 140 675 131 739 131 C 798 131 850 146 894 176 C 938 206 975 253 1006 315 Z" unicode="£" />
<glyph horiz-adv-x="1167" d="M 997 276 L 1116 166 C 1058 108 996 62 931 28 C 866 -5 780 -23 674 -23 C 580 -23 489 15 401 93 C 312 170 253 295 225 467 L 72 467 L 72 573 L 213 573 C 212 589 211 606 210 624 C 209 641 209 658 209 676 C 209 693 209 710 210 727 C 211 744 212 761 213 778 L 72 778 L 72 885 L 223 885 C 251 1066 312 1197 406 1279 C 499 1360 599 1401 705 1401 C 815 1401 900 1383 958 1347 C 1016 1311 1068 1271 1114 1229 L 983 1118 C 949 1152 910 1183 868 1210 C 826 1237 770 1251 702 1251 C 626 1251 562 1220 509 1158 C 456 1096 420 1005 401 885 L 807 885 L 807 778 L 389 778 C 388 761 387 744 386 726 C 385 708 385 690 385 672 C 385 654 385 637 386 621 C 387 604 388 588 389 573 L 739 573 L 739 467 L 403 467 C 423 350 462 264 520 209 C 577 154 646 127 727 127 C 788 127 841 144 887 178 C 933 212 969 244 997 276 Z" unicode="¤" />
<glyph horiz-adv-x="1167" d="M 932 1376 L 1108 1376 L 803 793 L 1061 793 L 1061 686 L 743 686 L 672 555 L 672 481 L 1061 481 L 1061 375 L 672 375 L 672 0 L 500 0 L 500 375 L 115 375 L 115 481 L 500 481 L 500 551 L 424 686 L 115 686 L 115 793 L 369 793 L 59 1376 L 258 1376 L 596 692 L 932 1376 Z" unicode="¥" />
<glyph horiz-adv-x="1167" d="M 780 887 C 867 854 930 815 969 770 C 1008 724 1028 668 1028 600 C 1028 548 1009 498 973 450 C 937 402 888 362 827 332 C 861 310 889 282 911 248 C 933 214 944 171 944 117 C 944 76 932 37 910 1 C 887 -34 857 -66 821 -94 C 785 -122 743 -142 696 -155 C 649 -167 603 -174 557 -174 C 485 -174 415 -162 349 -138 C 282 -114 228 -79 186 -33 L 283 92 C 316 57 357 27 407 3 C 457 -20 505 -33 553 -33 C 612 -33 662 -19 702 7 C 742 33 762 70 762 117 C 762 144 752 168 733 190 C 714 211 685 229 646 244 C 563 274 507 295 478 307 C 449 318 420 329 391 340 C 303 372 240 412 201 458 C 162 504 143 561 143 627 C 143 677 160 727 196 775 C 232 823 280 862 342 893 C 306 918 278 948 256 983 C 234 1018 223 1061 223 1112 C 223 1152 234 1190 257 1226 C 279 1262 309 1293 346 1321 C 382 1348 424 1368 471 1381 C 517 1394 564 1401 610 1401 C 684 1401 753 1389 815 1365 C 877 1341 929 1306 971 1260 L 874 1135 C 835 1173 793 1204 748 1226 C 703 1248 658 1260 614 1260 C 558 1260 509 1247 468 1221 C 426 1195 406 1159 406 1112 C 406 1081 417 1055 440 1034 C 463 1012 495 994 536 979 C 603 953 653 934 687 922 C 720 909 751 897 780 887 Z M 739 383 C 773 398 803 420 829 449 C 855 478 868 515 868 559 C 868 597 855 631 831 661 C 806 691 768 716 718 736 C 682 750 636 767 580 787 C 524 807 474 826 430 842 C 391 824 360 800 337 771 C 314 741 303 707 303 668 C 303 629 315 595 340 566 C 364 537 397 514 439 497 C 487 477 538 457 592 437 C 646 417 695 399 739 383 Z" unicode="§" />
<glyph horiz-adv-x="942" d="M 735 1389 L 735 1196 L 565 1196 L 565 1389 L 735 1389 Z M 375 1389 L 375 1196 L 203 1196 L 203 1389 L 375 1389 Z" unicode="¨" />
<glyph horiz-adv-x="1583" d="M 1010 590 L 1122 555 C 1100 476 1063 414 1010 368 C 956 322 891 299 815 299 C 708 299 621 335 555 407 C 488 479 455 579 455 709 C 455 825 487 922 553 999 C 618 1075 703 1114 809 1114 C 893 1114 962 1091 1015 1047 C 1068 1002 1102 940 1118 860 L 979 840 C 969 887 951 924 924 950 C 896 976 860 989 815 989 C 747 989 696 963 662 912 C 628 860 612 789 612 698 C 612 614 629 547 663 498 C 697 448 748 424 817 424 C 866 424 906 437 937 463 C 967 489 992 532 1010 590 Z M 793 1415 C 986 1415 1152 1345 1291 1207 C 1429 1068 1499 901 1499 707 C 1499 513 1429 346 1291 208 C 1152 69 986 0 793 0 C 597 0 431 69 293 208 C 155 346 86 513 86 707 C 86 901 155 1068 293 1207 C 431 1345 597 1415 793 1415 Z M 793 94 C 960 94 1104 154 1224 274 C 1344 394 1405 539 1405 707 C 1405 876 1344 1021 1224 1141 C 1104 1261 960 1321 793 1321 C 623 1321 478 1261 358 1141 C 238 1021 178 876 178 707 C 178 539 238 394 358 274 C 478 154 623 94 793 94 Z" unicode="©" />
<glyph horiz-adv-x="909" d="M 791 602 L 791 582 L 635 582 C 634 594 632 607 629 621 C 625 635 623 649 621 664 C 589 638 551 615 509 596 C 466 576 423 567 379 567 C 311 567 250 585 194 621 C 138 657 111 714 111 791 C 111 880 152 950 236 1001 C 320 1051 446 1086 614 1106 L 614 1147 C 614 1183 601 1213 576 1237 C 551 1261 507 1274 444 1274 C 386 1274 346 1257 325 1225 C 304 1192 291 1161 285 1133 L 137 1163 C 156 1235 192 1293 245 1335 C 297 1377 367 1399 455 1399 C 547 1399 622 1378 679 1337 C 735 1296 764 1227 764 1130 L 764 756 C 764 726 765 699 769 677 C 773 654 780 629 791 602 Z M 410 696 C 449 696 485 702 518 716 C 551 729 583 748 614 774 L 614 995 C 495 978 407 954 351 924 C 294 893 266 855 266 809 C 266 784 274 759 291 734 C 308 708 348 696 410 696 Z" unicode="ª" />
<glyph horiz-adv-x="1061" d="M 279 549 L 553 248 L 438 170 L 121 510 L 121 590 L 438 930 L 553 852 L 279 549 Z M 676 549 L 950 248 L 836 170 L 518 510 L 518 590 L 836 930 L 950 852 L 676 549 Z" unicode="«" />
<glyph horiz-adv-x="1167" d="M 1057 645 L 1057 88 L 905 88 L 905 498 L 100 498 L 100 645 L 1057 645 Z" unicode="¬" />
<glyph horiz-adv-x="702" d="M 594 625 L 594 463 L 109 463 L 109 625 L 594 625 Z" unicode="­" />
<glyph horiz-adv-x="1042" d="M 616 893 L 707 694 L 606 694 L 524 881 L 442 881 L 442 694 L 350 694 L 350 1174 L 545 1174 C 585 1174 622 1161 656 1137 C 690 1112 707 1076 707 1030 C 707 999 699 972 684 948 C 668 924 646 905 616 893 Z M 522 1382 C 643 1382 747 1338 834 1252 C 921 1165 965 1061 965 940 C 965 818 921 715 834 629 C 747 543 643 500 522 500 C 399 500 294 543 208 629 C 121 715 78 818 78 940 C 78 1061 121 1165 208 1252 C 294 1338 399 1382 522 1382 Z M 522 561 C 626 561 715 598 789 672 C 863 746 901 835 901 940 C 901 1044 863 1134 789 1209 C 715 1283 626 1321 522 1321 C 417 1321 327 1283 253 1209 C 178 1134 141 1044 141 940 C 141 835 178 746 253 672 C 327 598 417 561 522 561 Z M 537 973 C 549 973 564 977 580 986 C 596 994 604 1008 604 1028 C 604 1047 597 1061 584 1070 C 570 1078 555 1083 539 1083 L 442 1083 L 442 973 L 537 973 Z" unicode="®" />
<glyph horiz-adv-x="942" d="M 774 1370 L 774 1251 L 168 1251 L 168 1370 L 774 1370 Z" unicode="¯" />
<glyph horiz-adv-x="977" d="M 489 1444 C 578 1444 655 1412 719 1348 C 783 1284 815 1206 815 1116 C 815 1027 783 951 719 887 C 655 823 578 791 489 791 C 400 791 324 823 260 887 C 196 951 164 1027 164 1116 C 164 1206 196 1284 260 1348 C 324 1412 400 1444 489 1444 Z M 489 924 C 541 924 584 942 619 979 C 654 1015 672 1062 672 1118 C 672 1175 654 1221 619 1257 C 584 1293 541 1311 489 1311 C 437 1311 393 1293 359 1257 C 324 1221 307 1175 307 1118 C 307 1062 324 1015 359 979 C 393 942 437 924 489 924 Z" unicode="°" />
<glyph horiz-adv-x="1167" d="M 1067 776 L 1067 629 L 657 629 L 657 260 L 510 260 L 510 629 L 100 629 L 100 776 L 510 776 L 510 1145 L 657 1145 L 657 776 L 1067 776 Z M 1067 147 L 1067 0 L 100 0 L 100 147 L 1067 147 Z" unicode="±" />
<glyph horiz-adv-x="995" d="M 815 737 L 815 614 L 176 614 L 176 711 C 240 755 298 795 350 832 C 402 868 447 904 487 938 C 541 984 582 1029 610 1072 C 638 1115 653 1157 653 1198 C 653 1242 639 1276 612 1301 C 585 1326 546 1339 494 1339 C 442 1339 398 1324 363 1296 C 327 1267 294 1234 262 1196 L 170 1294 C 218 1343 268 1383 322 1413 C 376 1443 436 1458 502 1458 C 591 1458 664 1434 721 1387 C 778 1340 807 1276 807 1196 C 807 1140 790 1088 757 1040 C 723 991 677 941 618 891 C 589 867 557 842 521 816 C 485 790 447 763 408 737 L 815 737 Z" unicode="²" />
<glyph horiz-adv-x="995" d="M 659 1044 C 707 1029 747 1004 779 970 C 811 936 827 894 827 846 C 827 771 794 710 730 662 C 666 614 583 590 481 590 C 415 590 353 601 296 625 C 239 648 186 685 137 735 L 238 823 C 268 787 306 759 350 738 C 394 717 438 707 481 707 C 534 707 580 718 618 742 C 656 766 676 801 676 848 C 676 888 659 919 626 941 C 593 963 547 975 487 975 L 358 975 L 358 1096 L 481 1096 C 527 1096 567 1106 601 1128 C 634 1150 651 1180 651 1219 C 651 1253 637 1281 609 1305 C 581 1329 542 1341 492 1341 C 451 1341 412 1330 376 1308 C 339 1286 308 1260 283 1229 L 180 1313 C 228 1363 278 1400 332 1423 C 385 1446 440 1458 498 1458 C 588 1458 661 1436 717 1392 C 773 1348 801 1292 801 1225 C 801 1186 787 1151 761 1120 C 735 1088 701 1063 659 1044 Z" unicode="³" />
<glyph horiz-adv-x="942" d="M 696 1434 L 696 1423 L 430 1149 L 297 1149 L 477 1434 L 696 1434 Z" unicode="´" />
<glyph horiz-adv-x="1102" d="M 973 1434 L 973 -168 L 850 -168 L 850 1325 L 702 1325 L 702 -168 L 580 -168 L 580 690 C 420 690 298 723 214 789 C 130 855 88 947 88 1067 C 88 1132 102 1190 132 1242 C 162 1294 200 1335 246 1366 C 280 1389 322 1406 374 1417 C 425 1428 485 1434 553 1434 L 973 1434 Z M 354 1075 C 354 992 370 930 403 890 C 436 849 495 822 580 809 L 580 1325 C 500 1325 443 1303 407 1261 C 371 1218 354 1156 354 1075 Z" unicode="¶" />
<glyph horiz-adv-x="563" d="M 397 782 L 397 543 L 168 543 L 168 782 L 397 782 Z" unicode="·" />
<glyph horiz-adv-x="942" d="M 483 -70 C 559 -78 607 -98 627 -132 C 647 -165 657 -195 657 -223 C 657 -265 637 -301 598 -331 C 558 -360 513 -375 461 -375 C 437 -375 411 -372 382 -366 C 352 -360 322 -351 291 -338 L 322 -266 C 343 -277 364 -285 384 -291 C 404 -296 422 -299 436 -299 C 460 -299 482 -292 502 -278 C 522 -264 532 -245 532 -221 C 532 -193 520 -172 498 -156 C 475 -140 443 -131 401 -129 L 457 0 L 512 0 L 483 -70 Z" unicode="¸" />
<glyph horiz-adv-x="895" d="M 723 727 L 723 612 L 223 612 L 223 727 L 406 727 L 406 1290 L 223 1219 L 223 1321 C 283 1350 327 1373 357 1391 C 387 1408 421 1430 459 1458 L 553 1458 L 553 727 L 723 727 Z" unicode="¹" />
<glyph horiz-adv-x="944" d="M 471 1399 C 581 1399 670 1360 736 1283 C 802 1206 836 1106 836 983 C 836 857 802 756 735 679 C 667 601 579 563 471 563 C 364 563 277 601 210 679 C 142 756 109 857 109 983 C 109 1093 140 1190 202 1274 C 264 1357 354 1399 471 1399 Z M 471 684 C 543 684 595 711 627 767 C 659 822 676 894 676 983 C 676 1063 660 1133 630 1192 C 599 1250 546 1280 471 1280 C 399 1280 346 1251 314 1195 C 282 1139 266 1068 266 983 C 266 894 282 822 315 767 C 347 711 399 684 471 684 Z" unicode="º" />
<glyph horiz-adv-x="1061" d="M 543 590 L 543 510 L 227 170 L 113 248 L 385 549 L 113 852 L 227 930 L 543 590 Z M 940 590 L 940 510 L 625 170 L 510 248 L 782 549 L 510 852 L 625 930 L 940 590 Z" unicode="»" />
<glyph horiz-adv-x="2011" d="M 723 727 L 723 612 L 223 612 L 223 727 L 406 727 L 406 1290 L 223 1219 L 223 1321 C 283 1350 327 1373 357 1391 C 387 1408 421 1430 459 1458 L 553 1458 L 553 727 L 723 727 Z M 1800 313 L 1800 197 L 1651 197 L 1651 -10 L 1518 -10 L 1518 197 L 1092 197 L 1092 287 L 1520 852 L 1651 852 L 1651 313 L 1800 313 Z M 1487 1458 L 1632 1458 L 557 -27 L 412 -27 L 1487 1458 Z M 1251 313 L 1518 313 L 1518 664 L 1251 313 Z" unicode="¼" />
<glyph horiz-adv-x="2011" d="M 1853 123 L 1853 0 L 1214 0 L 1214 96 C 1278 140 1336 180 1388 217 C 1440 254 1486 290 1526 324 C 1580 370 1621 415 1649 458 C 1677 501 1692 543 1692 584 C 1692 628 1678 662 1651 687 C 1623 712 1584 725 1532 725 C 1480 725 1436 710 1401 681 C 1365 652 1332 619 1300 582 L 1208 680 C 1256 728 1306 768 1360 798 C 1414 828 1474 844 1540 844 C 1629 844 1702 820 1759 773 C 1816 725 1845 662 1845 582 C 1845 526 1828 474 1795 426 C 1762 377 1716 327 1657 276 C 1628 252 1596 228 1560 202 C 1524 176 1486 149 1446 123 L 1853 123 Z M 723 727 L 723 612 L 223 612 L 223 727 L 406 727 L 406 1290 L 223 1219 L 223 1321 C 283 1350 327 1373 357 1391 C 387 1408 421 1430 459 1458 L 553 1458 L 553 727 L 723 727 Z M 1469 1458 L 1614 1458 L 539 -27 L 393 -27 L 1469 1458 Z" unicode="½" />
<glyph horiz-adv-x="2011" d="M 659 1044 C 707 1029 747 1004 779 970 C 811 936 827 894 827 846 C 827 771 794 710 730 662 C 666 614 583 590 481 590 C 415 590 353 601 296 625 C 239 648 186 685 137 735 L 238 823 C 268 787 306 759 350 738 C 394 717 438 707 481 707 C 534 707 580 718 618 742 C 656 766 676 801 676 848 C 676 888 659 919 626 941 C 593 963 547 975 487 975 L 358 975 L 358 1096 L 481 1096 C 527 1096 567 1106 601 1128 C 634 1150 651 1180 651 1219 C 651 1253 637 1281 609 1305 C 581 1329 542 1341 492 1341 C 451 1341 412 1330 376 1308 C 339 1286 308 1260 283 1229 L 180 1313 C 228 1363 278 1400 332 1423 C 385 1446 440 1458 498 1458 C 588 1458 661 1436 717 1392 C 773 1348 801 1292 801 1225 C 801 1186 787 1151 761 1120 C 735 1088 701 1063 659 1044 Z M 1800 313 L 1800 197 L 1651 197 L 1651 -10 L 1518 -10 L 1518 197 L 1092 197 L 1092 287 L 1520 852 L 1651 852 L 1651 313 L 1800 313 Z M 1251 313 L 1518 313 L 1518 664 L 1251 313 Z M 1516 1458 L 1661 1458 L 586 -27 L 440 -27 L 1516 1458 Z" unicode="¾" />
<glyph horiz-adv-x="1100" d="M 850 111 L 1020 72 C 995 -56 940 -156 854 -227 C 768 -298 660 -334 532 -334 C 396 -334 289 -295 213 -217 C 136 -139 98 -50 98 49 C 98 89 104 129 116 169 C 128 209 146 244 170 276 C 195 310 229 345 272 380 C 314 414 364 454 422 498 C 449 518 471 541 489 565 C 507 589 516 616 516 647 L 516 752 L 670 752 L 670 612 C 670 565 658 524 635 490 C 611 456 585 425 557 399 C 533 377 507 355 478 333 C 449 310 419 286 389 262 C 360 238 337 208 320 172 C 303 136 295 99 295 61 C 295 -15 318 -74 364 -116 C 410 -158 474 -180 555 -180 C 632 -180 697 -154 749 -103 C 801 -51 835 19 850 111 Z M 700 1118 L 700 891 L 473 891 L 473 1118 L 700 1118 Z" unicode="¿" />
<glyph horiz-adv-x="1167" d="M 698 1434 L 1169 0 L 973 0 L 836 420 L 305 420 L 176 0 L -2 0 L 473 1434 L 698 1434 Z M 354 575 L 786 575 L 569 1260 L 354 575 Z M 535 1810 L 717 1530 L 582 1530 L 316 1800 L 316 1810 L 535 1810 Z" unicode="À" />
<glyph horiz-adv-x="1167" d="M 698 1434 L 1169 0 L 973 0 L 836 420 L 305 420 L 176 0 L -2 0 L 473 1434 L 698 1434 Z M 354 575 L 786 575 L 569 1260 L 354 575 Z M 854 1810 L 854 1800 L 586 1530 L 453 1530 L 633 1810 L 854 1810 Z" unicode="Á" />
<glyph horiz-adv-x="1167" d="M 698 1434 L 1169 0 L 973 0 L 836 420 L 305 420 L 176 0 L -2 0 L 473 1434 L 698 1434 Z M 354 575 L 786 575 L 569 1260 L 354 575 Z M 678 1810 L 873 1520 L 760 1520 L 584 1698 L 404 1520 L 291 1520 L 486 1810 L 678 1810 Z" unicode="Â" />
<glyph horiz-adv-x="1167" d="M 698 1434 L 1169 0 L 973 0 L 836 420 L 305 420 L 176 0 L -2 0 L 473 1434 L 698 1434 Z M 354 575 L 786 575 L 569 1260 L 354 575 Z M 783 1784 L 885 1784 C 877 1712 856 1657 824 1620 C 791 1583 751 1565 703 1565 C 679 1565 658 1568 639 1574 C 620 1580 602 1588 586 1600 C 563 1614 541 1628 521 1640 C 501 1652 483 1659 467 1659 C 445 1659 428 1652 415 1640 C 401 1627 393 1601 391 1563 L 291 1563 C 297 1636 316 1691 348 1728 C 380 1765 421 1784 471 1784 C 499 1784 524 1779 546 1769 C 568 1759 589 1746 611 1731 C 625 1719 640 1710 658 1702 C 676 1694 691 1690 705 1690 C 730 1690 748 1697 760 1711 C 772 1725 779 1749 783 1784 Z" unicode="Ã" />
<glyph horiz-adv-x="1167" d="M 698 1434 L 1169 0 L 973 0 L 836 420 L 305 420 L 176 0 L -2 0 L 473 1434 L 698 1434 Z M 354 575 L 786 575 L 569 1260 L 354 575 Z M 853 1761 L 853 1569 L 681 1569 L 681 1761 L 853 1761 Z M 489 1761 L 489 1569 L 317 1569 L 317 1761 L 489 1761 Z" unicode="Ä" />
<glyph horiz-adv-x="1167" d="M 583 1906 C 648 1906 700 1886 740 1846 C 780 1806 800 1755 800 1693 C 800 1631 778 1581 736 1543 C 694 1505 642 1487 581 1487 C 519 1487 467 1505 425 1543 C 383 1581 362 1631 362 1693 C 362 1749 381 1798 420 1841 C 458 1884 513 1906 583 1906 Z M 581 1564 C 617 1564 643 1576 660 1602 C 677 1627 686 1659 686 1697 C 686 1737 678 1769 662 1793 C 646 1817 619 1829 581 1829 C 542 1829 515 1816 500 1792 C 484 1767 477 1735 477 1697 C 477 1659 485 1628 501 1602 C 517 1576 544 1564 581 1564 Z M 698 1434 L 1169 0 L 973 0 L 836 420 L 305 420 L 176 0 L -2 0 L 473 1434 L 698 1434 Z M 354 575 L 786 575 L 569 1260 L 354 575 Z" unicode="Å" />
<glyph horiz-adv-x="1858" d="M 1806 164 L 1806 0 L 874 0 L 874 420 L 371 420 L 166 0 L -25 0 L 700 1434 L 1788 1434 L 1788 1270 L 1069 1270 L 1069 813 L 1577 813 L 1577 651 L 1069 651 L 1069 164 L 1806 164 Z M 446 575 L 874 575 L 874 1272 L 788 1272 L 446 575 Z" unicode="Æ" />
<glyph horiz-adv-x="1260" d="M 1065 485 L 1219 444 C 1180 289 1114 173 1021 97 C 927 20 816 -19 688 -23 L 670 -72 C 750 -80 800 -101 821 -135 C 841 -169 852 -200 852 -229 C 852 -273 831 -310 790 -340 C 748 -370 700 -385 645 -385 C 620 -385 593 -381 563 -374 C 533 -367 501 -357 467 -344 L 500 -264 C 522 -275 544 -284 566 -291 C 587 -297 605 -301 621 -301 C 644 -301 665 -294 685 -281 C 705 -268 715 -250 715 -227 C 715 -200 702 -179 678 -163 C 653 -147 619 -139 575 -137 L 625 -20 C 463 -10 332 59 231 187 C 130 315 80 491 80 715 C 80 933 134 1112 244 1250 C 353 1388 497 1458 676 1458 C 815 1458 930 1417 1020 1335 C 1110 1253 1170 1139 1202 993 L 1008 965 C 990 1061 952 1141 894 1204 C 835 1266 761 1298 672 1298 C 556 1298 464 1246 394 1143 C 324 1040 289 898 289 717 C 289 528 325 384 398 284 C 470 184 564 135 678 135 C 774 135 856 164 922 224 C 988 284 1036 371 1065 485 Z" unicode="Ç" />
<glyph horiz-adv-x="1155" d="M 1104 164 L 1104 0 L 164 0 L 164 1434 L 1085 1434 L 1085 1270 L 358 1270 L 358 813 L 870 813 L 870 651 L 358 651 L 358 164 L 1104 164 Z M 592 1810 L 774 1530 L 639 1530 L 373 1800 L 373 1810 L 592 1810 Z" unicode="È" />
<glyph horiz-adv-x="1155" d="M 1104 164 L 1104 0 L 164 0 L 164 1434 L 1085 1434 L 1085 1270 L 358 1270 L 358 813 L 870 813 L 870 651 L 358 651 L 358 164 L 1104 164 Z M 915 1810 L 915 1800 L 647 1530 L 514 1530 L 694 1810 L 915 1810 Z" unicode="É" />
<glyph horiz-adv-x="1155" d="M 1104 164 L 1104 0 L 164 0 L 164 1434 L 1085 1434 L 1085 1270 L 358 1270 L 358 813 L 870 813 L 870 651 L 358 651 L 358 164 L 1104 164 Z M 721 1810 L 916 1520 L 803 1520 L 627 1698 L 447 1520 L 334 1520 L 529 1810 L 721 1810 Z" unicode="Ê" />
<glyph horiz-adv-x="1155" d="M 1104 164 L 1104 0 L 164 0 L 164 1434 L 1085 1434 L 1085 1270 L 358 1270 L 358 813 L 870 813 L 870 651 L 358 651 L 358 164 L 1104 164 Z M 919 1761 L 919 1569 L 747 1569 L 747 1761 L 919 1761 Z M 555 1761 L 555 1569 L 383 1569 L 383 1761 L 555 1761 Z" unicode="Ë" />
<glyph horiz-adv-x="535" d="M 365 1434 L 365 0 L 170 0 L 170 1434 L 365 1434 Z M 224 1810 L 406 1530 L 271 1530 L 5 1800 L 5 1810 L 224 1810 Z" unicode="Ì" />
<glyph horiz-adv-x="535" d="M 365 1434 L 365 0 L 170 0 L 170 1434 L 365 1434 Z M 530 1810 L 530 1800 L 262 1530 L 129 1530 L 309 1810 L 530 1810 Z" unicode="Í" />
<glyph horiz-adv-x="535" d="M 365 1434 L 365 0 L 170 0 L 170 1434 L 365 1434 Z M 364 1810 L 559 1520 L 446 1520 L 270 1698 L 90 1520 L -23 1520 L 172 1810 L 364 1810 Z" unicode="Î" />
<glyph horiz-adv-x="535" d="M 535 1761 L 535 1569 L 363 1569 L 363 1761 L 535 1761 Z M 171 1761 L 171 1569 L -1 1569 L -1 1761 L 171 1761 Z M 365 1434 L 365 0 L 170 0 L 170 1434 L 365 1434 Z" unicode="Ï" />
<glyph horiz-adv-x="1382" d="M 1219 1434 L 1219 0 L 1055 0 L 328 1223 L 328 0 L 164 0 L 164 1434 L 410 1434 L 1055 346 L 1055 1434 L 1219 1434 Z M 908 1784 L 1010 1784 C 1002 1712 981 1657 949 1620 C 916 1583 876 1565 828 1565 C 804 1565 783 1568 764 1574 C 745 1580 727 1588 711 1600 C 688 1614 666 1628 646 1640 C 626 1652 608 1659 592 1659 C 570 1659 553 1652 540 1640 C 526 1627 518 1601 516 1563 L 416 1563 C 422 1636 441 1691 473 1728 C 505 1765 546 1784 596 1784 C 624 1784 649 1779 671 1769 C 693 1759 714 1746 736 1731 C 750 1719 765 1710 783 1702 C 801 1694 816 1690 830 1690 C 855 1690 873 1697 885 1711 C 897 1725 904 1749 908 1784 Z" unicode="Ñ" />
<glyph horiz-adv-x="1360" d="M 1100 1272 C 1156 1208 1200 1128 1232 1034 C 1264 939 1280 833 1280 717 C 1280 609 1266 510 1239 420 C 1211 330 1174 255 1126 193 C 1072 123 1007 70 931 32 C 855 -6 771 -25 680 -25 C 586 -25 502 -5 426 33 C 350 71 286 125 233 195 C 184 260 146 337 120 425 C 93 513 80 610 80 717 C 80 833 95 939 127 1034 C 158 1129 202 1208 260 1272 C 313 1331 375 1377 446 1409 C 516 1441 594 1458 680 1458 C 765 1458 843 1442 914 1410 C 984 1378 1046 1332 1100 1272 Z M 680 133 C 800 133 895 183 965 283 C 1034 383 1069 528 1069 717 C 1069 900 1035 1043 967 1145 C 899 1247 803 1298 680 1298 C 556 1298 460 1246 392 1143 C 323 1040 289 898 289 717 C 289 527 324 383 394 283 C 464 183 559 133 680 133 Z M 633 1810 L 815 1530 L 680 1530 L 414 1800 L 414 1810 L 633 1810 Z" unicode="Ò" />
<glyph horiz-adv-x="1360" d="M 1100 1272 C 1156 1208 1200 1128 1232 1034 C 1264 939 1280 833 1280 717 C 1280 609 1266 510 1239 420 C 1211 330 1174 255 1126 193 C 1072 123 1007 70 931 32 C 855 -6 771 -25 680 -25 C 586 -25 502 -5 426 33 C 350 71 286 125 233 195 C 184 260 146 337 120 425 C 93 513 80 610 80 717 C 80 833 95 939 127 1034 C 158 1129 202 1208 260 1272 C 313 1331 375 1377 446 1409 C 516 1441 594 1458 680 1458 C 765 1458 843 1442 914 1410 C 984 1378 1046 1332 1100 1272 Z M 680 133 C 800 133 895 183 965 283 C 1034 383 1069 528 1069 717 C 1069 900 1035 1043 967 1145 C 899 1247 803 1298 680 1298 C 556 1298 460 1246 392 1143 C 323 1040 289 898 289 717 C 289 527 324 383 394 283 C 464 183 559 133 680 133 Z M 901 1810 L 901 1800 L 633 1530 L 500 1530 L 680 1810 L 901 1810 Z" unicode="Ó" />
<glyph horiz-adv-x="1360" d="M 1100 1272 C 1156 1208 1200 1128 1232 1034 C 1264 939 1280 833 1280 717 C 1280 609 1266 510 1239 420 C 1211 330 1174 255 1126 193 C 1072 123 1007 70 931 32 C 855 -6 771 -25 680 -25 C 586 -25 502 -5 426 33 C 350 71 286 125 233 195 C 184 260 146 337 120 425 C 93 513 80 610 80 717 C 80 833 95 939 127 1034 C 158 1129 202 1208 260 1272 C 313 1331 375 1377 446 1409 C 516 1441 594 1458 680 1458 C 765 1458 843 1442 914 1410 C 984 1378 1046 1332 1100 1272 Z M 680 133 C 800 133 895 183 965 283 C 1034 383 1069 528 1069 717 C 1069 900 1035 1043 967 1145 C 899 1247 803 1298 680 1298 C 556 1298 460 1246 392 1143 C 323 1040 289 898 289 717 C 289 527 324 383 394 283 C 464 183 559 133 680 133 Z M 774 1810 L 969 1520 L 856 1520 L 680 1698 L 500 1520 L 387 1520 L 582 1810 L 774 1810 Z" unicode="Ô" />
<glyph horiz-adv-x="1360" d="M 1100 1272 C 1156 1208 1200 1128 1232 1034 C 1264 939 1280 833 1280 717 C 1280 609 1266 510 1239 420 C 1211 330 1174 255 1126 193 C 1072 123 1007 70 931 32 C 855 -6 771 -25 680 -25 C 586 -25 502 -5 426 33 C 350 71 286 125 233 195 C 184 260 146 337 120 425 C 93 513 80 610 80 717 C 80 833 95 939 127 1034 C 158 1129 202 1208 260 1272 C 313 1331 375 1377 446 1409 C 516 1441 594 1458 680 1458 C 765 1458 843 1442 914 1410 C 984 1378 1046 1332 1100 1272 Z M 680 133 C 800 133 895 183 965 283 C 1034 383 1069 528 1069 717 C 1069 900 1035 1043 967 1145 C 899 1247 803 1298 680 1298 C 556 1298 460 1246 392 1143 C 323 1040 289 898 289 717 C 289 527 324 383 394 283 C 464 183 559 133 680 133 Z M 881 1784 L 983 1784 C 975 1712 954 1657 922 1620 C 889 1583 849 1565 801 1565 C 777 1565 756 1568 737 1574 C 718 1580 700 1588 684 1600 C 661 1614 639 1628 619 1640 C 599 1652 581 1659 565 1659 C 543 1659 526 1652 513 1640 C 499 1627 491 1601 489 1563 L 389 1563 C 395 1636 414 1691 446 1728 C 478 1765 519 1784 569 1784 C 597 1784 622 1779 644 1769 C 666 1759 687 1746 709 1731 C 723 1719 738 1710 756 1702 C 774 1694 789 1690 803 1690 C 828 1690 846 1697 858 1711 C 870 1725 877 1749 881 1784 Z" unicode="Õ" />
<glyph horiz-adv-x="1360" d="M 1100 1272 C 1156 1208 1200 1128 1232 1034 C 1264 939 1280 833 1280 717 C 1280 609 1266 510 1239 420 C 1211 330 1174 255 1126 193 C 1072 123 1007 70 931 32 C 855 -6 771 -25 680 -25 C 586 -25 502 -5 426 33 C 350 71 286 125 233 195 C 184 260 146 337 120 425 C 93 513 80 610 80 717 C 80 833 95 939 127 1034 C 158 1129 202 1208 260 1272 C 313 1331 375 1377 446 1409 C 516 1441 594 1458 680 1458 C 765 1458 843 1442 914 1410 C 984 1378 1046 1332 1100 1272 Z M 680 133 C 800 133 895 183 965 283 C 1034 383 1069 528 1069 717 C 1069 900 1035 1043 967 1145 C 899 1247 803 1298 680 1298 C 556 1298 460 1246 392 1143 C 323 1040 289 898 289 717 C 289 527 324 383 394 283 C 464 183 559 133 680 133 Z M 948 1761 L 948 1569 L 776 1569 L 776 1761 L 948 1761 Z M 584 1761 L 584 1569 L 412 1569 L 412 1761 L 584 1761 Z" unicode="Ö" />
<glyph horiz-adv-x="1167" d="M 684 551 L 1036 203 L 932 100 L 586 451 L 238 100 L 135 203 L 483 551 L 135 897 L 238 1001 L 586 649 L 932 1001 L 1036 897 L 684 551 Z" unicode="×" />
<glyph horiz-adv-x="1360" d="M 1280 717 C 1280 607 1266 508 1239 420 C 1212 331 1174 255 1126 193 C 1072 122 1007 68 932 31 C 856 -6 772 -25 680 -25 C 630 -25 582 -19 537 -7 C 492 5 450 21 410 43 L 328 -125 L 207 -125 L 322 106 C 305 119 290 133 276 149 C 262 165 249 181 236 199 C 186 265 147 340 120 426 C 93 512 80 609 80 717 C 80 835 95 941 126 1035 C 157 1129 202 1208 260 1272 C 314 1332 375 1378 445 1410 C 515 1442 593 1458 680 1458 C 731 1458 779 1452 823 1440 C 867 1428 910 1411 950 1389 L 1022 1534 L 1143 1534 L 1040 1325 C 1050 1317 1060 1308 1070 1298 C 1079 1288 1088 1278 1098 1268 C 1155 1203 1200 1124 1232 1032 C 1264 940 1280 835 1280 717 L 1280 717 Z M 1073 717 C 1073 814 1063 901 1045 979 C 1027 1056 999 1119 963 1169 L 483 188 C 512 170 543 156 576 147 C 608 137 644 133 682 133 C 743 133 798 145 846 171 C 894 196 935 233 969 283 C 1003 332 1028 393 1046 466 C 1064 538 1073 622 1073 717 L 1073 717 Z M 881 1243 C 825 1279 759 1298 682 1298 C 619 1298 563 1284 514 1258 C 465 1232 424 1194 390 1144 C 356 1094 331 1033 313 961 C 295 889 287 807 287 717 C 287 615 296 526 315 449 C 334 372 363 309 401 260 L 881 1243 Z" unicode="Ø" />
<glyph horiz-adv-x="1337" d="M 1182 1434 L 1182 537 C 1182 489 1179 443 1174 400 C 1169 357 1160 317 1147 279 C 1114 179 1057 103 977 52 C 896 0 792 -25 666 -25 C 533 -25 426 4 344 62 C 262 120 206 205 178 317 C 170 347 164 381 160 417 C 156 453 154 490 154 528 L 154 1434 L 350 1434 L 350 539 C 350 491 353 446 359 405 C 365 364 376 328 391 297 C 415 245 451 205 498 177 C 545 149 605 135 678 135 C 750 135 809 148 857 174 C 904 200 941 237 967 285 C 983 317 994 355 1002 397 C 1010 439 1014 487 1014 541 L 1014 1434 L 1182 1434 Z M 631 1810 L 813 1530 L 678 1530 L 412 1800 L 412 1810 L 631 1810 Z" unicode="Ù" />
<glyph horiz-adv-x="1337" d="M 975 1810 L 975 1800 L 707 1530 L 574 1530 L 754 1810 L 975 1810 Z M 1182 1434 L 1182 537 C 1182 489 1179 443 1174 400 C 1169 357 1160 317 1147 279 C 1114 179 1057 103 977 52 C 896 0 792 -25 666 -25 C 533 -25 426 4 344 62 C 262 120 206 205 178 317 C 170 347 164 381 160 417 C 156 453 154 490 154 528 L 154 1434 L 350 1434 L 350 539 C 350 491 353 446 359 405 C 365 364 376 328 391 297 C 415 245 451 205 498 177 C 545 149 605 135 678 135 C 750 135 809 148 857 174 C 904 200 941 237 967 285 C 983 317 994 355 1002 397 C 1010 439 1014 487 1014 541 L 1014 1434 L 1182 1434 Z" unicode="Ú" />
<glyph horiz-adv-x="1337" d="M 1182 1434 L 1182 537 C 1182 489 1179 443 1174 400 C 1169 357 1160 317 1147 279 C 1114 179 1057 103 977 52 C 896 0 792 -25 666 -25 C 533 -25 426 4 344 62 C 262 120 206 205 178 317 C 170 347 164 381 160 417 C 156 453 154 490 154 528 L 154 1434 L 350 1434 L 350 539 C 350 491 353 446 359 405 C 365 364 376 328 391 297 C 415 245 451 205 498 177 C 545 149 605 135 678 135 C 750 135 809 148 857 174 C 904 200 941 237 967 285 C 983 317 994 355 1002 397 C 1010 439 1014 487 1014 541 L 1014 1434 L 1182 1434 Z M 770 1810 L 965 1520 L 852 1520 L 676 1698 L 496 1520 L 383 1520 L 578 1810 L 770 1810 Z" unicode="Û" />
<glyph horiz-adv-x="1337" d="M 1182 1434 L 1182 537 C 1182 489 1179 443 1174 400 C 1169 357 1160 317 1147 279 C 1114 179 1057 103 977 52 C 896 0 792 -25 666 -25 C 533 -25 426 4 344 62 C 262 120 206 205 178 317 C 170 347 164 381 160 417 C 156 453 154 490 154 528 L 154 1434 L 350 1434 L 350 539 C 350 491 353 446 359 405 C 365 364 376 328 391 297 C 415 245 451 205 498 177 C 545 149 605 135 678 135 C 750 135 809 148 857 174 C 904 200 941 237 967 285 C 983 317 994 355 1002 397 C 1010 439 1014 487 1014 541 L 1014 1434 L 1182 1434 Z M 942 1761 L 942 1569 L 770 1569 L 770 1761 L 942 1761 Z M 578 1761 L 578 1569 L 406 1569 L 406 1761 L 578 1761 Z" unicode="Ü" />
<glyph horiz-adv-x="1171" d="M 995 1434 L 1182 1434 L 684 569 L 684 0 L 489 0 L 489 565 L -10 1434 L 207 1434 L 602 731 L 995 1434 Z M 897 1810 L 897 1800 L 629 1530 L 496 1530 L 676 1810 L 897 1810 Z" unicode="Ý" />
<glyph horiz-adv-x="1094" d="M 696 838 C 798 815 878 770 936 702 C 993 634 1022 548 1022 444 C 1022 310 979 200 895 112 C 810 24 701 -20 567 -20 C 541 -20 518 -18 497 -16 C 475 -14 455 -10 436 -6 C 436 -6 442 17 453 64 C 464 110 470 133 471 133 C 489 128 507 125 523 123 C 539 121 556 121 573 121 C 669 121 737 153 777 217 C 817 281 838 359 838 451 C 838 554 807 631 746 683 C 685 734 591 760 465 760 L 465 893 C 573 893 646 914 686 957 C 725 999 745 1056 745 1126 C 745 1168 730 1209 701 1249 C 672 1289 623 1309 553 1309 C 491 1309 436 1287 388 1243 C 339 1199 315 1118 315 999 L 315 0 L 139 0 L 139 991 C 139 1145 180 1259 262 1333 C 344 1407 442 1444 557 1444 C 656 1444 742 1418 816 1367 C 889 1316 926 1241 926 1143 C 926 1072 905 1010 863 957 C 821 903 765 867 696 848 L 696 838 Z" unicode="ß" />
<glyph horiz-adv-x="1047" d="M 495 1434 L 675 1149 L 544 1149 L 276 1423 L 276 1434 L 495 1434 Z M 948 10 L 948 0 L 770 0 C 769 12 766 30 760 52 C 754 74 750 98 750 125 C 708 87 656 53 596 25 C 535 -3 474 -18 412 -18 C 314 -18 232 6 166 56 C 100 105 68 174 68 264 C 68 377 123 467 233 533 C 343 599 512 645 741 670 L 741 737 C 741 797 720 842 679 874 C 638 906 578 922 500 922 C 440 922 391 906 353 875 C 315 843 288 797 274 737 L 109 770 C 131 859 176 929 244 981 C 312 1033 402 1059 514 1059 C 599 1059 669 1047 725 1025 C 780 1003 822 972 852 934 C 872 906 888 874 898 838 C 908 802 913 761 913 717 L 913 217 C 913 157 917 113 925 83 C 933 53 941 29 948 10 Z M 453 125 C 509 125 561 134 608 153 C 654 171 699 199 741 236 L 741 553 C 578 530 455 498 372 456 C 289 414 248 358 248 289 C 248 235 264 195 297 167 C 329 139 381 125 453 125 Z" unicode="à" />
<glyph horiz-adv-x="1047" d="M 745 1434 L 745 1423 L 479 1149 L 346 1149 L 526 1434 L 745 1434 Z M 948 10 L 948 0 L 770 0 C 769 12 766 30 760 52 C 754 74 750 98 750 125 C 708 87 656 53 596 25 C 535 -3 474 -18 412 -18 C 314 -18 232 6 166 56 C 100 105 68 174 68 264 C 68 377 123 467 233 533 C 343 599 512 645 741 670 L 741 737 C 741 797 720 842 679 874 C 638 906 578 922 500 922 C 440 922 391 906 353 875 C 315 843 288 797 274 737 L 109 770 C 131 859 176 929 244 981 C 312 1033 402 1059 514 1059 C 599 1059 669 1047 725 1025 C 780 1003 822 972 852 934 C 872 906 888 874 898 838 C 908 802 913 761 913 717 L 913 217 C 913 157 917 113 925 83 C 933 53 941 29 948 10 Z M 453 125 C 509 125 561 134 608 153 C 654 171 699 199 741 236 L 741 553 C 578 530 455 498 372 456 C 289 414 248 358 248 289 C 248 235 264 195 297 167 C 329 139 381 125 453 125 Z" unicode="á" />
<glyph horiz-adv-x="1047" d="M 948 10 L 948 0 L 770 0 C 769 12 766 30 760 52 C 754 74 750 98 750 125 C 708 87 656 53 596 25 C 535 -3 474 -18 412 -18 C 314 -18 232 6 166 56 C 100 105 68 174 68 264 C 68 377 123 467 233 533 C 343 599 512 645 741 670 L 741 737 C 741 797 720 842 679 874 C 638 906 578 922 500 922 C 440 922 391 906 353 875 C 315 843 288 797 274 737 L 109 770 C 131 859 176 929 244 981 C 312 1033 402 1059 514 1059 C 599 1059 669 1047 725 1025 C 780 1003 822 972 852 934 C 872 906 888 874 898 838 C 908 802 913 761 913 717 L 913 217 C 913 157 917 113 925 83 C 933 53 941 29 948 10 Z M 453 125 C 509 125 561 134 608 153 C 654 171 699 199 741 236 L 741 553 C 578 530 455 498 372 456 C 289 414 248 358 248 289 C 248 235 264 195 297 167 C 329 139 381 125 453 125 Z M 602 1434 L 797 1139 L 684 1139 L 508 1321 L 328 1139 L 215 1139 L 410 1434 L 602 1434 Z" unicode="â" />
<glyph horiz-adv-x="1047" d="M 948 10 L 948 0 L 770 0 C 769 12 766 30 760 52 C 754 74 750 98 750 125 C 708 87 656 53 596 25 C 535 -3 474 -18 412 -18 C 314 -18 232 6 166 56 C 100 105 68 174 68 264 C 68 377 123 467 233 533 C 343 599 512 645 741 670 L 741 737 C 741 797 720 842 679 874 C 638 906 578 922 500 922 C 440 922 391 906 353 875 C 315 843 288 797 274 737 L 109 770 C 131 859 176 929 244 981 C 312 1033 402 1059 514 1059 C 599 1059 669 1047 725 1025 C 780 1003 822 972 852 934 C 872 906 888 874 898 838 C 908 802 913 761 913 717 L 913 217 C 913 157 917 113 925 83 C 933 53 941 29 948 10 Z M 453 125 C 509 125 561 134 608 153 C 654 171 699 199 741 236 L 741 553 C 578 530 455 498 372 456 C 289 414 248 358 248 289 C 248 235 264 195 297 167 C 329 139 381 125 453 125 Z M 707 1411 L 809 1411 C 801 1339 780 1284 748 1247 C 715 1210 675 1192 627 1192 C 603 1192 582 1195 563 1201 C 544 1207 526 1215 510 1227 C 487 1241 465 1255 445 1267 C 425 1279 407 1286 391 1286 C 369 1286 352 1279 339 1267 C 325 1254 317 1228 315 1190 L 215 1190 C 221 1263 240 1318 272 1355 C 304 1392 345 1411 395 1411 C 423 1411 448 1406 470 1396 C 492 1386 513 1373 535 1358 C 549 1346 564 1337 582 1329 C 600 1321 615 1317 629 1317 C 654 1317 672 1324 684 1338 C 696 1352 703 1376 707 1411 Z" unicode="ã" />
<glyph horiz-adv-x="1047" d="M 948 10 L 948 0 L 770 0 C 769 12 766 30 760 52 C 754 74 750 98 750 125 C 708 87 656 53 596 25 C 535 -3 474 -18 412 -18 C 314 -18 232 6 166 56 C 100 105 68 174 68 264 C 68 377 123 467 233 533 C 343 599 512 645 741 670 L 741 737 C 741 797 720 842 679 874 C 638 906 578 922 500 922 C 440 922 391 906 353 875 C 315 843 288 797 274 737 L 109 770 C 131 859 176 929 244 981 C 312 1033 402 1059 514 1059 C 599 1059 669 1047 725 1025 C 780 1003 822 972 852 934 C 872 906 888 874 898 838 C 908 802 913 761 913 717 L 913 217 C 913 157 917 113 925 83 C 933 53 941 29 948 10 Z M 453 125 C 509 125 561 134 608 153 C 654 171 699 199 741 236 L 741 553 C 578 530 455 498 372 456 C 289 414 248 358 248 289 C 248 235 264 195 297 167 C 329 139 381 125 453 125 Z M 776 1389 L 776 1196 L 606 1196 L 606 1389 L 776 1389 Z M 416 1389 L 416 1196 L 244 1196 L 244 1389 L 416 1389 Z" unicode="ä" />
<glyph horiz-adv-x="1047" d="M 948 10 L 948 0 L 770 0 C 769 12 766 30 760 52 C 754 74 750 98 750 125 C 708 87 656 53 596 25 C 535 -3 474 -18 412 -18 C 314 -18 232 6 166 56 C 100 105 68 174 68 264 C 68 377 123 467 233 533 C 343 599 512 645 741 670 L 741 737 C 741 797 720 842 679 874 C 638 906 578 922 500 922 C 440 922 391 906 353 875 C 315 843 288 797 274 737 L 109 770 C 131 859 176 929 244 981 C 312 1033 402 1059 514 1059 C 599 1059 669 1047 725 1025 C 780 1003 822 972 852 934 C 872 906 888 874 898 838 C 908 802 913 761 913 717 L 913 217 C 913 157 917 113 925 83 C 933 53 941 29 948 10 Z M 453 125 C 509 125 561 134 608 153 C 654 171 699 199 741 236 L 741 553 C 578 530 455 498 372 456 C 289 414 248 358 248 289 C 248 235 264 195 297 167 C 329 139 381 125 453 125 Z M 520 1552 C 585 1552 637 1532 677 1492 C 717 1452 737 1401 737 1339 C 737 1277 715 1227 673 1189 C 631 1151 579 1133 518 1133 C 456 1133 404 1151 362 1189 C 320 1227 299 1277 299 1339 C 299 1395 318 1444 357 1487 C 395 1530 450 1552 520 1552 Z M 518 1210 C 554 1210 580 1222 597 1248 C 614 1273 623 1305 623 1343 C 623 1383 615 1415 599 1439 C 583 1463 556 1475 518 1475 C 479 1475 452 1462 437 1438 C 421 1413 414 1381 414 1343 C 414 1305 422 1274 438 1248 C 454 1222 481 1210 518 1210 Z" unicode="å" />
<glyph horiz-adv-x="1704" d="M 1511 301 L 1640 231 C 1601 163 1544 104 1468 54 C 1392 4 1300 -20 1192 -20 C 1108 -20 1036 -3 974 29 C 912 61 861 106 823 164 C 744 91 673 42 610 18 C 547 -5 481 -18 412 -18 C 314 -18 232 6 166 56 C 100 105 68 174 68 264 C 68 377 123 466 233 531 C 343 596 512 641 741 666 L 741 735 C 741 796 720 842 679 874 C 638 906 578 922 500 922 C 440 922 391 906 353 875 C 315 843 288 797 274 737 L 109 770 C 131 859 176 929 244 981 C 312 1033 402 1059 514 1059 C 596 1059 667 1046 726 1020 C 785 994 830 955 860 903 C 900 949 948 987 1004 1016 C 1060 1044 1122 1059 1190 1059 C 1272 1059 1345 1042 1407 1010 C 1469 978 1520 929 1559 864 C 1585 819 1605 767 1618 708 C 1631 649 1638 585 1638 516 L 1638 500 L 897 500 C 897 381 926 288 984 221 C 1042 154 1116 121 1208 121 C 1280 121 1342 138 1393 173 C 1444 207 1483 250 1511 301 Z M 453 125 C 509 125 561 134 608 153 C 654 171 699 199 741 236 L 741 545 C 578 522 455 491 372 452 C 289 412 248 358 248 289 C 248 235 264 195 297 167 C 329 139 381 125 453 125 Z M 903 621 L 1462 621 C 1462 711 1439 783 1395 839 C 1351 894 1286 922 1202 922 C 1110 922 1037 892 985 833 C 932 773 905 703 903 621 Z" unicode="æ" />
<glyph horiz-adv-x="987" d="M 813 342 L 942 301 C 919 214 874 139 808 75 C 742 11 655 -20 547 -20 L 526 -70 C 602 -78 650 -98 669 -132 C 688 -165 698 -195 698 -223 C 698 -265 678 -301 639 -331 C 599 -360 554 -375 502 -375 C 478 -375 452 -372 423 -366 C 393 -360 363 -351 332 -338 L 362 -262 C 384 -273 405 -282 425 -289 C 445 -295 463 -299 477 -299 C 501 -299 523 -292 543 -278 C 563 -264 573 -245 573 -221 C 573 -193 561 -172 539 -156 C 516 -140 484 -131 442 -129 L 489 -18 C 366 -6 266 47 188 142 C 110 237 72 364 72 522 C 72 666 113 791 195 898 C 277 1005 391 1059 535 1059 C 653 1059 745 1028 811 968 C 877 908 919 832 938 741 L 772 713 C 765 750 746 794 716 844 C 686 894 628 920 543 920 C 437 920 362 878 320 796 C 277 713 256 618 256 510 C 256 397 279 304 326 231 C 373 157 447 121 547 121 C 635 121 698 145 735 194 C 772 242 798 292 813 342 Z" unicode="ç" />
<glyph horiz-adv-x="1061" d="M 868 301 L 997 231 C 958 163 901 104 825 54 C 749 4 656 -20 547 -20 C 402 -20 287 28 201 126 C 115 224 72 349 72 502 C 72 659 115 791 203 898 C 291 1005 405 1059 545 1059 C 627 1059 700 1042 763 1009 C 826 976 877 927 915 862 C 941 817 961 765 975 707 C 988 649 995 585 995 516 L 995 498 L 250 498 C 250 379 279 286 338 220 C 396 154 471 121 563 121 C 637 121 699 138 750 173 C 801 207 840 250 868 301 Z M 256 621 L 819 621 C 818 710 796 782 752 838 C 708 894 643 922 557 922 C 463 922 390 891 337 831 C 283 770 256 700 256 621 Z M 508 1434 L 688 1149 L 557 1149 L 289 1423 L 289 1434 L 508 1434 Z" unicode="è" />
<glyph horiz-adv-x="1061" d="M 868 301 L 997 231 C 958 163 901 104 825 54 C 749 4 656 -20 547 -20 C 402 -20 287 28 201 126 C 115 224 72 349 72 502 C 72 659 115 791 203 898 C 291 1005 405 1059 545 1059 C 627 1059 700 1042 763 1009 C 826 976 877 927 915 862 C 941 817 961 765 975 707 C 988 649 995 585 995 516 L 995 498 L 250 498 C 250 379 279 286 338 220 C 396 154 471 121 563 121 C 637 121 699 138 750 173 C 801 207 840 250 868 301 Z M 256 621 L 819 621 C 818 710 796 782 752 838 C 708 894 643 922 557 922 C 463 922 390 891 337 831 C 283 770 256 700 256 621 Z M 786 1434 L 786 1423 L 520 1149 L 387 1149 L 567 1434 L 786 1434 Z" unicode="é" />
<glyph horiz-adv-x="1061" d="M 637 1434 L 832 1139 L 719 1139 L 543 1321 L 363 1139 L 250 1139 L 445 1434 L 637 1434 Z M 868 301 L 997 231 C 958 163 901 104 825 54 C 749 4 656 -20 547 -20 C 402 -20 287 28 201 126 C 115 224 72 349 72 502 C 72 659 115 791 203 898 C 291 1005 405 1059 545 1059 C 627 1059 700 1042 763 1009 C 826 976 877 927 915 862 C 941 817 961 765 975 707 C 988 649 995 585 995 516 L 995 498 L 250 498 C 250 379 279 286 338 220 C 396 154 471 121 563 121 C 637 121 699 138 750 173 C 801 207 840 250 868 301 Z M 256 621 L 819 621 C 818 710 796 782 752 838 C 708 894 643 922 557 922 C 463 922 390 891 337 831 C 283 770 256 700 256 621 Z" unicode="ê" />
<glyph horiz-adv-x="1061" d="M 807 1389 L 807 1196 L 637 1196 L 637 1389 L 807 1389 Z M 447 1389 L 447 1196 L 275 1196 L 275 1389 L 447 1389 Z M 868 301 L 997 231 C 958 163 901 104 825 54 C 749 4 656 -20 547 -20 C 402 -20 287 28 201 126 C 115 224 72 349 72 502 C 72 659 115 791 203 898 C 291 1005 405 1059 545 1059 C 627 1059 700 1042 763 1009 C 826 976 877 927 915 862 C 941 817 961 765 975 707 C 988 649 995 585 995 516 L 995 498 L 250 498 C 250 379 279 286 338 220 C 396 154 471 121 563 121 C 637 121 699 138 750 173 C 801 207 840 250 868 301 Z M 256 621 L 819 621 C 818 710 796 782 752 838 C 708 894 643 922 557 922 C 463 922 390 891 337 831 C 283 770 256 700 256 621 Z" unicode="ë" />
<glyph horiz-adv-x="475" d="M 191 1434 L 371 1149 L 240 1149 L -28 1423 L -28 1434 L 191 1434 Z M 324 1040 L 324 0 L 150 0 L 150 1040 L 324 1040 Z" unicode="ì" />
<glyph horiz-adv-x="475" d="M 504 1434 L 504 1423 L 238 1149 L 105 1149 L 285 1434 L 504 1434 Z M 324 1040 L 324 0 L 150 0 L 150 1040 L 324 1040 Z" unicode="í" />
<glyph horiz-adv-x="487" d="M 330 1434 L 506 1139 L 399 1139 L 244 1321 L 84 1139 L -23 1139 L 154 1434 L 330 1434 Z M 330 1040 L 330 0 L 156 0 L 156 1040 L 330 1040 Z" unicode="î" />
<glyph horiz-adv-x="487" d="M 174 1378 L 174 1196 L 10 1196 L 10 1378 L 174 1378 Z M 475 1378 L 475 1196 L 315 1196 L 315 1378 L 475 1378 Z M 330 1040 L 330 0 L 156 0 L 156 1040 L 330 1040 Z" unicode="ï" />
<glyph horiz-adv-x="1098" d="M 969 711 L 969 0 L 791 0 L 791 707 C 791 767 776 815 748 853 C 720 890 669 909 596 909 C 534 909 478 891 428 855 C 378 819 341 791 315 770 L 315 0 L 139 0 L 139 1040 L 311 1040 L 311 887 C 343 919 386 956 442 997 C 498 1038 572 1059 666 1059 C 735 1059 792 1043 838 1012 C 883 980 915 943 934 901 C 947 870 956 838 961 806 C 966 774 969 742 969 711 Z M 758 1411 L 860 1411 C 852 1339 831 1284 799 1247 C 766 1210 726 1192 678 1192 C 654 1192 633 1195 614 1201 C 595 1207 577 1215 561 1227 C 538 1241 516 1255 496 1267 C 476 1279 458 1286 442 1286 C 420 1286 403 1279 390 1267 C 376 1254 368 1228 366 1190 L 266 1190 C 272 1263 291 1318 323 1355 C 355 1392 396 1411 446 1411 C 474 1411 499 1406 521 1396 C 543 1386 564 1373 586 1358 C 600 1346 615 1337 633 1329 C 651 1321 666 1317 680 1317 C 705 1317 723 1324 735 1338 C 747 1352 754 1376 758 1411 Z" unicode="ñ" />
<glyph horiz-adv-x="1075" d="M 537 1059 C 680 1059 794 1009 879 910 C 963 811 1006 682 1006 522 C 1006 359 963 228 877 129 C 791 29 678 -20 537 -20 C 398 -20 286 29 200 129 C 114 228 72 359 72 522 C 72 677 113 805 197 907 C 281 1008 394 1059 537 1059 Z M 537 121 C 629 121 699 155 747 225 C 795 295 819 394 819 522 C 819 648 795 746 747 816 C 699 885 629 920 537 920 C 441 920 371 884 325 812 C 279 740 256 643 256 522 C 256 397 279 299 325 228 C 371 156 442 121 537 121 Z M 498 1434 L 678 1149 L 547 1149 L 279 1423 L 279 1434 L 498 1434 Z" unicode="ò" />
<glyph horiz-adv-x="1075" d="M 537 1059 C 680 1059 794 1009 879 910 C 963 811 1006 682 1006 522 C 1006 359 963 228 877 129 C 791 29 678 -20 537 -20 C 398 -20 286 29 200 129 C 114 228 72 359 72 522 C 72 677 113 805 197 907 C 281 1008 394 1059 537 1059 Z M 537 121 C 629 121 699 155 747 225 C 795 295 819 394 819 522 C 819 648 795 746 747 816 C 699 885 629 920 537 920 C 441 920 371 884 325 812 C 279 740 256 643 256 522 C 256 397 279 299 325 228 C 371 156 442 121 537 121 Z M 776 1434 L 776 1423 L 510 1149 L 377 1149 L 557 1434 L 776 1434 Z" unicode="ó" />
<glyph horiz-adv-x="1075" d="M 629 1434 L 824 1139 L 711 1139 L 535 1321 L 355 1139 L 242 1139 L 437 1434 L 629 1434 Z M 537 1059 C 680 1059 794 1009 879 910 C 963 811 1006 682 1006 522 C 1006 359 963 228 877 129 C 791 29 678 -20 537 -20 C 398 -20 286 29 200 129 C 114 228 72 359 72 522 C 72 677 113 805 197 907 C 281 1008 394 1059 537 1059 Z M 537 121 C 629 121 699 155 747 225 C 795 295 819 394 819 522 C 819 648 795 746 747 816 C 699 885 629 920 537 920 C 441 920 371 884 325 812 C 279 740 256 643 256 522 C 256 397 279 299 325 228 C 371 156 442 121 537 121 Z" unicode="ô" />
<glyph horiz-adv-x="1075" d="M 537 1059 C 680 1059 794 1009 879 910 C 963 811 1006 682 1006 522 C 1006 359 963 228 877 129 C 791 29 678 -20 537 -20 C 398 -20 286 29 200 129 C 114 228 72 359 72 522 C 72 677 113 805 197 907 C 281 1008 394 1059 537 1059 Z M 537 121 C 629 121 699 155 747 225 C 795 295 819 394 819 522 C 819 648 795 746 747 816 C 699 885 629 920 537 920 C 441 920 371 884 325 812 C 279 740 256 643 256 522 C 256 397 279 299 325 228 C 371 156 442 121 537 121 Z M 734 1411 L 836 1411 C 828 1339 807 1284 775 1247 C 742 1210 702 1192 654 1192 C 630 1192 609 1195 590 1201 C 571 1207 553 1215 537 1227 C 514 1241 492 1255 472 1267 C 452 1279 434 1286 418 1286 C 396 1286 379 1279 366 1267 C 352 1254 344 1228 342 1190 L 242 1190 C 248 1263 267 1318 299 1355 C 331 1392 372 1411 422 1411 C 450 1411 475 1406 497 1396 C 519 1386 540 1373 562 1358 C 576 1346 591 1337 609 1329 C 627 1321 642 1317 656 1317 C 681 1317 699 1324 711 1338 C 723 1352 730 1376 734 1411 Z" unicode="õ" />
<glyph horiz-adv-x="1075" d="M 804 1389 L 804 1196 L 634 1196 L 634 1389 L 804 1389 Z M 444 1389 L 444 1196 L 272 1196 L 272 1389 L 444 1389 Z M 537 1059 C 680 1059 794 1009 879 910 C 963 811 1006 682 1006 522 C 1006 359 963 228 877 129 C 791 29 678 -20 537 -20 C 398 -20 286 29 200 129 C 114 228 72 359 72 522 C 72 677 113 805 197 907 C 281 1008 394 1059 537 1059 Z M 537 121 C 629 121 699 155 747 225 C 795 295 819 394 819 522 C 819 648 795 746 747 816 C 699 885 629 920 537 920 C 441 920 371 884 325 812 C 279 740 256 643 256 522 C 256 397 279 299 325 228 C 371 156 442 121 537 121 Z" unicode="ö" />
<glyph horiz-adv-x="1167" d="M 586 297 C 617 297 645 285 670 261 C 694 237 707 208 707 174 C 707 142 694 115 670 91 C 645 67 617 55 586 55 C 552 55 523 67 499 92 C 475 116 463 144 463 176 C 463 208 475 237 500 261 C 524 285 553 297 586 297 Z M 586 1047 C 617 1047 645 1034 669 1010 C 693 986 705 957 705 924 C 705 892 692 864 668 840 C 644 816 616 805 586 805 C 552 805 523 817 499 841 C 475 865 463 893 463 926 C 463 959 475 987 499 1011 C 523 1035 552 1047 586 1047 Z M 1067 625 L 1067 477 L 100 477 L 100 625 L 1067 625 Z" unicode="÷" />
<glyph horiz-adv-x="1075" d="M 1006 522 C 1006 440 994 365 972 299 C 950 232 918 175 878 128 C 837 80 788 44 730 18 C 672 -7 607 -20 537 -20 C 463 -20 398 -5 340 23 L 266 -125 L 166 -125 L 264 72 C 204 118 157 179 123 256 C 89 332 72 421 72 522 C 72 594 81 662 101 727 C 121 792 150 849 189 898 C 228 947 277 986 335 1015 C 393 1044 460 1059 537 1059 C 610 1059 676 1044 735 1016 L 809 1161 L 909 1161 L 813 969 C 873 923 921 861 955 785 C 989 709 1006 621 1006 522 L 1006 522 Z M 823 522 C 823 582 817 640 805 696 C 793 751 773 798 743 836 L 403 152 C 439 131 484 121 537 121 C 587 121 631 131 667 151 C 703 171 732 198 755 234 C 778 269 795 311 806 361 C 817 410 823 464 823 522 L 823 522 Z M 672 889 C 634 909 589 920 537 920 C 486 920 443 909 407 889 C 371 869 341 841 318 805 C 295 769 278 727 268 679 C 257 631 252 578 252 522 C 252 456 258 395 271 341 C 283 286 304 241 334 205 L 672 889 Z" unicode="ø" />
<glyph horiz-adv-x="1096" d="M 954 1040 L 954 0 L 784 0 L 784 154 C 746 110 698 71 640 35 C 582 0 512 -18 430 -18 C 362 -18 306 -2 260 28 C 214 59 182 96 164 139 C 150 169 142 201 138 233 C 134 265 133 298 133 330 L 133 1040 L 307 1040 L 307 334 C 307 274 321 226 350 189 C 378 151 429 133 502 133 C 554 133 605 148 657 180 C 708 211 749 241 780 270 L 780 1040 L 954 1040 Z M 512 1434 L 692 1149 L 561 1149 L 293 1423 L 293 1434 L 512 1434 Z" unicode="ù" />
<glyph horiz-adv-x="1096" d="M 791 1434 L 791 1423 L 525 1149 L 392 1149 L 572 1434 L 791 1434 Z M 954 1040 L 954 0 L 784 0 L 784 154 C 746 110 698 71 640 35 C 582 0 512 -18 430 -18 C 362 -18 306 -2 260 28 C 214 59 182 96 164 139 C 150 169 142 201 138 233 C 134 265 133 298 133 330 L 133 1040 L 307 1040 L 307 334 C 307 274 321 226 350 189 C 378 151 429 133 502 133 C 554 133 605 148 657 180 C 708 211 749 241 780 270 L 780 1040 L 954 1040 Z" unicode="ú" />
<glyph horiz-adv-x="1096" d="M 636 1434 L 831 1139 L 718 1139 L 542 1321 L 362 1139 L 249 1139 L 444 1434 L 636 1434 Z M 954 1040 L 954 0 L 784 0 L 784 154 C 746 110 698 71 640 35 C 582 0 512 -18 430 -18 C 362 -18 306 -2 260 28 C 214 59 182 96 164 139 C 150 169 142 201 138 233 C 134 265 133 298 133 330 L 133 1040 L 307 1040 L 307 334 C 307 274 321 226 350 189 C 378 151 429 133 502 133 C 554 133 605 148 657 180 C 708 211 749 241 780 270 L 780 1040 L 954 1040 Z" unicode="û" />
<glyph horiz-adv-x="1096" d="M 954 1040 L 954 0 L 784 0 L 784 154 C 746 110 698 71 640 35 C 582 0 512 -18 430 -18 C 362 -18 306 -2 260 28 C 214 59 182 96 164 139 C 150 169 142 201 138 233 C 134 265 133 298 133 330 L 133 1040 L 307 1040 L 307 334 C 307 274 321 226 350 189 C 378 151 429 133 502 133 C 554 133 605 148 657 180 C 708 211 749 241 780 270 L 780 1040 L 954 1040 Z M 813 1389 L 813 1196 L 643 1196 L 643 1389 L 813 1389 Z M 453 1389 L 453 1196 L 281 1196 L 281 1389 L 453 1389 Z" unicode="ü" />
<glyph horiz-adv-x="922" d="M 758 1434 L 758 1423 L 492 1149 L 359 1149 L 539 1434 L 758 1434 Z M 760 1040 L 918 1040 L 526 -35 C 486 -143 439 -220 385 -268 C 331 -316 261 -340 174 -340 C 153 -340 132 -338 112 -336 C 92 -334 71 -330 51 -326 L 51 -178 C 73 -182 95 -185 117 -189 C 138 -193 156 -195 172 -195 C 233 -195 279 -179 311 -148 C 343 -116 368 -68 387 -2 C 387 -1 376 27 356 84 C 335 141 324 171 324 174 L 4 1040 L 190 1040 L 479 223 L 760 1040 Z" unicode="ý" />
<glyph horiz-adv-x="922" d="M 760 1040 L 918 1040 L 526 -35 C 486 -143 439 -220 385 -268 C 331 -316 261 -340 174 -340 C 153 -340 132 -338 112 -336 C 92 -334 71 -330 51 -326 L 51 -178 C 73 -182 95 -185 117 -189 C 138 -193 156 -195 172 -195 C 233 -195 279 -179 311 -148 C 343 -116 368 -68 387 -2 C 387 -1 376 27 356 84 C 335 141 324 171 324 174 L 4 1040 L 190 1040 L 479 223 L 760 1040 Z M 727 1389 L 727 1196 L 557 1196 L 557 1389 L 727 1389 Z M 367 1389 L 367 1196 L 195 1196 L 195 1389 L 367 1389 Z" unicode="ÿ" />
<glyph horiz-adv-x="471" d="M 322 1040 L 322 0 L 148 0 L 148 1040 L 322 1040 Z" unicode="ı" />
<glyph horiz-adv-x="1038" d="M 1020 0 L 164 0 L 164 602 L 35 520 L 35 674 L 164 752 L 164 1434 L 358 1434 L 358 846 L 590 991 L 590 834 L 358 696 L 358 164 L 1020 164 L 1020 0 Z" unicode="Ł" />
<glyph horiz-adv-x="504" d="M 461 760 L 338 686 L 338 0 L 164 0 L 164 602 L 45 528 L 45 670 L 164 739 L 164 1434 L 338 1434 L 338 823 L 461 901 L 461 760 Z" unicode="ł" />
<glyph horiz-adv-x="2032" d="M 1980 164 L 1980 0 L 1055 0 L 1055 135 C 1003 84 946 45 884 17 C 821 -11 753 -25 680 -25 C 586 -25 502 -5 426 33 C 350 71 286 125 233 195 C 184 260 146 337 120 425 C 93 513 80 610 80 717 C 80 833 95 939 127 1034 C 158 1129 202 1208 260 1272 C 313 1331 375 1377 446 1409 C 516 1441 594 1458 680 1458 C 753 1458 821 1444 885 1417 C 949 1389 1005 1350 1055 1298 L 1055 1434 L 1962 1434 L 1962 1270 L 1243 1270 L 1243 813 L 1751 813 L 1751 651 L 1243 651 L 1243 164 L 1980 164 Z M 680 133 C 800 133 895 183 964 283 C 1032 383 1067 528 1067 717 C 1067 900 1033 1043 966 1145 C 898 1247 803 1298 680 1298 C 556 1298 460 1246 392 1143 C 323 1040 289 898 289 717 C 289 527 324 383 394 283 C 464 183 559 133 680 133 Z" unicode="Œ" />
<glyph horiz-adv-x="1780" d="M 1587 301 L 1716 231 C 1677 163 1620 104 1544 54 C 1468 4 1376 -20 1268 -20 C 1187 -20 1115 -3 1052 29 C 989 62 937 108 895 166 C 855 108 804 63 744 30 C 683 -3 614 -20 537 -20 C 398 -20 286 29 200 129 C 114 228 72 359 72 522 C 72 677 113 805 197 907 C 281 1008 394 1059 537 1059 C 618 1059 689 1042 751 1008 C 812 974 863 926 903 864 C 943 921 994 968 1056 1004 C 1117 1040 1187 1059 1266 1059 C 1348 1059 1421 1042 1483 1010 C 1545 978 1595 929 1634 864 C 1660 819 1680 767 1694 708 C 1707 649 1714 585 1714 516 L 1714 498 L 973 498 C 973 379 1002 286 1060 220 C 1118 154 1192 121 1284 121 C 1356 121 1418 138 1469 173 C 1520 207 1559 250 1587 301 Z M 537 121 C 629 121 699 155 747 225 C 795 295 819 394 819 522 C 819 648 795 746 747 816 C 699 885 629 920 537 920 C 441 920 371 884 325 812 C 279 740 256 643 256 522 C 256 397 279 299 325 228 C 371 156 442 121 537 121 Z M 979 621 L 1538 621 C 1537 710 1515 782 1471 838 C 1427 894 1362 922 1278 922 C 1186 922 1114 893 1062 835 C 1009 777 981 706 979 621 Z" unicode="œ" />
<glyph horiz-adv-x="1200" d="M 924 1810 L 729 1520 L 537 1520 L 342 1810 L 455 1810 L 635 1632 L 811 1810 L 924 1810 Z M 1145 393 C 1145 333 1131 277 1105 226 C 1078 174 1041 130 994 93 C 947 56 891 27 827 6 C 762 -14 692 -25 616 -25 C 542 -25 475 -16 417 0 C 359 15 307 37 262 64 C 217 91 178 122 145 158 C 111 194 83 231 59 270 L 209 395 C 229 358 253 324 281 292 C 309 260 341 232 377 209 C 412 185 450 167 491 153 C 532 139 575 133 621 133 C 667 133 709 138 749 150 C 788 161 822 177 850 198 C 878 218 901 243 917 272 C 933 301 942 333 942 369 C 942 405 936 435 926 460 C 916 485 900 507 879 525 C 858 543 832 558 801 571 C 769 583 733 595 692 606 C 654 615 616 624 578 632 C 539 640 500 650 461 662 C 419 673 378 688 337 708 C 296 727 259 752 227 782 C 195 812 169 849 149 892 C 129 935 119 986 119 1044 C 119 1078 123 1111 132 1143 C 141 1175 154 1205 171 1233 C 188 1261 208 1288 232 1312 C 255 1336 281 1358 311 1376 C 396 1430 498 1458 616 1458 C 678 1458 734 1451 784 1439 C 834 1427 879 1410 919 1388 C 959 1366 994 1341 1025 1312 C 1056 1283 1084 1252 1108 1219 L 963 1094 C 948 1114 930 1137 910 1161 C 889 1185 864 1207 836 1227 C 808 1247 775 1264 738 1278 C 701 1291 659 1298 612 1298 C 567 1298 527 1292 491 1280 C 455 1268 424 1251 398 1230 C 372 1209 353 1184 339 1156 C 325 1128 319 1097 319 1065 C 319 1025 326 993 341 967 C 355 941 374 919 398 902 C 421 884 448 870 478 860 C 508 850 538 841 569 834 C 617 822 665 811 713 801 C 760 790 804 778 844 766 C 890 751 932 733 970 711 C 1007 689 1039 664 1065 634 C 1091 604 1110 569 1124 529 C 1138 489 1145 444 1145 393 L 1145 393 Z" unicode="Š" />
<glyph horiz-adv-x="926" d="M 582 590 C 681 567 756 533 807 487 C 857 441 883 379 883 301 C 883 209 842 132 761 71 C 679 10 579 -20 461 -20 C 367 -20 286 -1 217 36 C 148 73 91 131 47 211 L 176 301 C 210 241 251 196 299 165 C 346 134 406 119 479 119 C 543 119 597 133 642 162 C 686 190 709 229 709 279 C 709 317 697 346 674 368 C 651 389 616 406 569 420 C 536 428 497 437 451 445 C 405 453 364 463 326 475 C 239 503 178 540 143 586 C 107 631 90 688 90 758 C 90 802 100 843 122 880 C 144 916 172 948 207 975 C 243 1003 283 1024 329 1038 C 375 1052 420 1059 465 1059 C 549 1059 624 1042 688 1010 C 752 977 806 924 850 850 L 711 762 C 687 809 654 848 612 878 C 570 908 523 924 469 924 C 411 924 361 910 321 882 C 280 854 260 816 260 770 C 260 734 272 704 296 682 C 320 659 353 643 395 633 C 417 627 445 620 477 613 C 509 606 544 598 582 590 Z M 659 1434 L 772 1434 L 577 1139 L 385 1139 L 190 1434 L 303 1434 L 483 1251 L 659 1434 Z" unicode="š" />
<glyph horiz-adv-x="1171" d="M 995 1434 L 1182 1434 L 684 569 L 684 0 L 489 0 L 489 565 L -10 1434 L 207 1434 L 602 731 L 995 1434 Z M 870 1761 L 870 1569 L 698 1569 L 698 1761 L 870 1761 Z M 506 1761 L 506 1569 L 334 1569 L 334 1761 L 506 1761 Z" unicode="Ÿ" />
<glyph horiz-adv-x="1104" d="M 856 1810 L 662 1520 L 469 1520 L 274 1810 L 387 1810 L 567 1632 L 743 1810 L 856 1810 Z M 1069 0 L 31 0 L 31 125 L 821 1270 L 80 1270 L 80 1434 L 1067 1434 L 1067 1315 L 270 164 L 1069 164 L 1069 0 Z" unicode="Ž" />
<glyph horiz-adv-x="850" d="M 823 133 L 823 0 L 31 0 L 31 98 L 590 911 L 70 911 L 70 1040 L 809 1040 L 809 946 L 248 133 L 823 133 Z M 610 1434 L 723 1434 L 528 1139 L 336 1139 L 141 1434 L 254 1434 L 434 1251 L 610 1434 Z" unicode="ž" />
<glyph horiz-adv-x="842" d="M 670 1401 C 701 1401 732 1400 762 1398 C 792 1396 819 1393 844 1389 L 819 1253 C 808 1253 791 1255 767 1258 C 743 1260 723 1262 705 1262 C 665 1262 630 1251 601 1231 C 571 1211 553 1177 545 1130 L 512 932 L 713 932 L 688 801 L 489 801 C 417 398 377 172 368 122 C 358 72 354 47 354 47 C 340 -31 306 -95 253 -143 C 200 -191 133 -216 53 -217 C 21 -217 -9 -216 -39 -214 C -69 -212 -96 -209 -121 -205 L -96 -70 C -85 -70 -68 -72 -44 -74 C -20 -76 0 -78 18 -78 C 58 -78 92 -67 122 -47 C 151 -27 170 6 178 53 C 178 53 182 77 191 126 C 199 174 239 399 309 801 L 152 801 L 176 934 L 334 934 L 369 1137 C 381 1215 414 1278 468 1327 C 522 1375 589 1400 670 1401 Z" unicode="ƒ" />
<glyph horiz-adv-x="481" d="M 281 1434 L 379 1434 L 258 1171 L 354 1171 L 354 942 L 129 942 L 129 1141 L 281 1434 Z" unicode="ʻ" />
<glyph horiz-adv-x="481" d="M 354 1434 L 354 1233 L 201 942 L 104 942 L 223 1204 L 129 1204 L 129 1434 L 354 1434 Z" unicode="ʼ" />
<glyph horiz-adv-x="942" d="M 567 1434 L 762 1139 L 649 1139 L 473 1321 L 293 1139 L 180 1139 L 375 1434 L 567 1434 Z" unicode="ˆ" />
<glyph horiz-adv-x="942" d="M 649 1434 L 762 1434 L 567 1139 L 375 1139 L 180 1434 L 293 1434 L 473 1251 L 649 1434 Z" unicode="ˇ" />
<glyph horiz-adv-x="942" d="M 774 1370 L 774 1251 L 168 1251 L 168 1370 L 774 1370 Z" unicode="ˉ" />
<glyph horiz-adv-x="942" d="M 641 1434 L 750 1434 C 736 1338 708 1265 664 1214 C 620 1162 555 1137 471 1137 C 384 1137 319 1163 276 1217 C 232 1270 205 1342 193 1434 L 301 1434 C 309 1400 322 1363 341 1323 C 359 1283 403 1264 471 1264 C 537 1264 579 1282 597 1319 C 615 1355 629 1394 641 1434 Z" unicode="˘" />
<glyph horiz-adv-x="942" d="M 559 1399 L 559 1198 L 381 1198 L 381 1399 L 559 1399 Z" unicode="˙" />
<glyph horiz-adv-x="942" d="M 473 1552 C 538 1552 590 1532 630 1492 C 670 1452 690 1401 690 1339 C 690 1277 668 1227 626 1189 C 584 1151 532 1133 471 1133 C 409 1133 357 1151 315 1189 C 273 1227 252 1277 252 1339 C 252 1395 271 1444 310 1487 C 348 1530 403 1552 473 1552 Z M 471 1210 C 507 1210 533 1222 550 1248 C 567 1273 576 1305 576 1343 C 576 1383 568 1415 552 1439 C 536 1463 509 1475 471 1475 C 432 1475 405 1462 390 1438 C 374 1413 367 1381 367 1343 C 367 1305 375 1274 391 1248 C 407 1222 434 1210 471 1210 Z" unicode="˚" />
<glyph horiz-adv-x="942" d="M 666 1411 L 768 1411 C 760 1339 739 1284 707 1247 C 674 1210 634 1192 586 1192 C 562 1192 541 1195 522 1201 C 503 1207 485 1215 469 1227 C 446 1241 424 1255 404 1267 C 384 1279 366 1286 350 1286 C 328 1286 311 1279 298 1267 C 284 1254 276 1228 274 1190 L 174 1190 C 180 1263 199 1318 231 1355 C 263 1392 304 1411 354 1411 C 382 1411 407 1406 429 1396 C 451 1386 472 1373 494 1358 C 508 1346 523 1337 541 1329 C 559 1321 574 1317 588 1317 C 613 1317 631 1324 643 1338 C 655 1352 662 1376 666 1411 Z" unicode="˜" />
<glyph horiz-adv-x="0" d="" unicode="Δ" />
<glyph horiz-adv-x="1247" d="M 1184 137 L 1184 6 C 1153 -2 1127 -8 1106 -12 C 1084 -16 1060 -18 1034 -18 C 970 -18 913 0 862 34 C 811 68 786 141 786 252 C 786 384 786 503 786 609 C 786 715 787 809 788 893 L 406 893 L 410 0 L 233 0 L 233 893 L 55 893 L 55 1040 L 1176 1040 L 1176 893 L 961 893 L 961 256 C 961 194 977 157 1009 145 C 1041 133 1071 127 1098 127 C 1108 127 1122 128 1140 130 C 1158 132 1173 135 1184 137 Z" unicode="π" />
<glyph horiz-adv-x="702" d="M 594 625 L 594 463 L 109 463 L 109 625 L 594 625 Z" unicode="‐" />
<glyph horiz-adv-x="702" d="M 594 625 L 594 463 L 109 463 L 109 625 L 594 625 Z" unicode="‑" />
<glyph horiz-adv-x="1167" d="M 1008 625 L 1008 475 L 160 475 L 160 625 L 1008 625 Z" unicode="–" />
<glyph horiz-adv-x="2200" d="M 2040 625 L 2040 475 L 160 475 L 160 625 L 2040 625 Z" unicode="—" />
<glyph horiz-adv-x="2085" d="M 1874 131 L 1874 0 L 66 0 L 66 131 L 1874 131 Z" unicode="―" />
<glyph horiz-adv-x="481" d="M 281 1434 L 379 1434 L 258 1171 L 354 1171 L 354 942 L 129 942 L 129 1141 L 281 1434 Z" unicode="‘" />
<glyph horiz-adv-x="481" d="M 354 1434 L 354 1233 L 201 942 L 104 942 L 223 1204 L 129 1204 L 129 1434 L 354 1434 Z" unicode="’" />
<glyph horiz-adv-x="481" d="M 354 236 L 354 35 L 201 -256 L 104 -256 L 223 6 L 129 6 L 129 236 L 354 236 Z" unicode="‚" />
<glyph horiz-adv-x="829" d="M 281 1434 L 379 1434 L 258 1171 L 354 1171 L 354 942 L 129 942 L 129 1141 L 281 1434 Z M 627 1434 L 725 1434 L 604 1171 L 700 1171 L 700 942 L 475 942 L 475 1141 L 627 1434 Z" unicode="“" />
<glyph horiz-adv-x="829" d="M 354 1434 L 354 1233 L 201 942 L 104 942 L 223 1204 L 129 1204 L 129 1434 L 354 1434 Z M 700 1434 L 700 1233 L 547 942 L 451 942 L 569 1204 L 475 1204 L 475 1434 L 700 1434 Z" unicode="”" />
<glyph horiz-adv-x="829" d="M 354 236 L 354 35 L 201 -256 L 104 -256 L 223 6 L 129 6 L 129 236 L 354 236 Z M 700 236 L 700 35 L 547 -256 L 451 -256 L 569 6 L 475 6 L 475 236 L 700 236 Z" unicode="„" />
<glyph horiz-adv-x="1096" d="M 893 1128 L 893 952 L 582 1008 L 637 733 L 569 -6 L 522 -6 L 461 733 L 528 1008 L 215 952 L 215 1128 L 528 1061 L 461 1434 L 637 1434 L 582 1061 L 893 1128 Z" unicode="†" />
<glyph horiz-adv-x="1096" d="M 893 475 L 893 299 L 582 367 L 637 -6 L 461 -6 L 528 367 L 215 299 L 215 475 L 528 420 L 461 715 L 528 1008 L 215 952 L 215 1128 L 528 1061 L 461 1434 L 637 1434 L 582 1061 L 893 1128 L 893 952 L 582 1008 L 637 715 L 582 420 L 893 475 Z" unicode="‡" />
<glyph horiz-adv-x="866" d="M 434 1114 C 542 1114 634 1074 712 996 C 790 918 829 825 829 717 C 829 609 790 515 712 437 C 634 358 542 319 434 319 C 325 319 232 358 154 437 C 76 515 37 609 37 717 C 37 825 76 918 154 996 C 232 1074 325 1114 434 1114 Z" unicode="•" />
<glyph horiz-adv-x="1751" d="M 408 240 L 408 0 L 178 0 L 178 240 L 408 240 Z M 992 240 L 992 0 L 762 0 L 762 240 L 992 240 Z M 1576 240 L 1576 0 L 1346 0 L 1346 240 L 1576 240 Z" unicode="…" />
<glyph horiz-adv-x="2511" d="M 475 1401 C 563 1401 640 1369 704 1305 C 768 1241 801 1163 801 1073 C 801 984 768 908 704 844 C 640 780 563 748 475 748 C 386 748 310 780 246 844 C 182 908 150 984 150 1073 C 150 1163 182 1241 246 1305 C 310 1369 386 1401 475 1401 Z M 475 881 C 527 881 570 899 605 936 C 639 972 657 1019 657 1075 C 657 1132 639 1178 605 1214 C 570 1250 527 1268 475 1268 C 423 1268 379 1250 345 1214 C 310 1178 293 1132 293 1075 C 293 1019 310 972 345 936 C 379 899 423 881 475 881 Z M 1282 631 C 1370 631 1447 599 1511 535 C 1575 471 1608 393 1608 303 C 1608 214 1575 137 1511 73 C 1447 9 1370 -23 1282 -23 C 1193 -23 1116 9 1052 73 C 988 137 956 214 956 303 C 956 393 988 471 1052 535 C 1116 599 1193 631 1282 631 Z M 1282 111 C 1334 111 1377 129 1412 166 C 1446 202 1464 249 1464 305 C 1464 362 1446 408 1412 444 C 1377 480 1334 498 1282 498 C 1230 498 1186 480 1152 444 C 1117 408 1100 362 1100 305 C 1100 249 1117 202 1152 166 C 1186 129 1230 111 1282 111 Z M 2042 631 C 2130 631 2207 599 2271 535 C 2335 471 2367 393 2367 303 C 2367 214 2335 137 2271 73 C 2207 9 2130 -23 2042 -23 C 1953 -23 1876 9 1812 73 C 1748 137 1716 214 1716 303 C 1716 393 1748 471 1812 535 C 1876 599 1953 631 2042 631 Z M 2042 111 C 2094 111 2137 129 2172 166 C 2206 202 2224 249 2224 305 C 2224 362 2206 408 2172 444 C 2137 480 2094 498 2042 498 C 1990 498 1946 480 1912 444 C 1877 408 1860 362 1860 305 C 1860 249 1877 202 1912 166 C 1946 129 1990 111 2042 111 Z M 1305 1376 L 1444 1376 L 449 0 L 311 0 L 1305 1376 Z" unicode="‰" />
<glyph horiz-adv-x="664" d="M 279 549 L 553 248 L 438 170 L 121 510 L 121 590 L 438 930 L 553 852 L 279 549 Z" unicode="‹" />
<glyph horiz-adv-x="664" d="M 543 590 L 543 510 L 227 170 L 113 248 L 385 549 L 113 852 L 227 930 L 543 590 Z" unicode="›" />
<glyph horiz-adv-x="365" d="M 668 1458 L 813 1458 L -262 -27 L -408 -27 L 668 1458 Z" unicode="⁄" />
<glyph horiz-adv-x="1167" d="M 997 276 L 1116 166 C 1058 108 996 62 931 28 C 866 -5 780 -23 674 -23 C 580 -23 489 15 401 93 C 312 170 253 295 225 467 L 72 467 L 72 573 L 213 573 C 212 589 211 606 210 624 C 209 641 209 658 209 676 C 209 693 209 710 210 727 C 211 744 212 761 213 778 L 72 778 L 72 885 L 223 885 C 251 1066 312 1197 406 1279 C 499 1360 599 1401 705 1401 C 815 1401 900 1383 958 1347 C 1016 1311 1068 1271 1114 1229 L 983 1118 C 949 1152 910 1183 868 1210 C 826 1237 770 1251 702 1251 C 626 1251 562 1220 509 1158 C 456 1096 420 1005 401 885 L 807 885 L 807 778 L 389 778 C 388 761 387 744 386 726 C 385 708 385 690 385 672 C 385 654 385 637 386 621 C 387 604 388 588 389 573 L 739 573 L 739 467 L 403 467 C 423 350 462 264 520 209 C 577 154 646 127 727 127 C 788 127 841 144 887 178 C 933 212 969 244 997 276 Z" unicode="€" />
<glyph horiz-adv-x="985" d="M 877 1434 L 891 1001 L 815 1001 L 801 1313 L 688 1001 L 643 1001 L 532 1313 L 516 1001 L 442 1001 L 465 1434 L 578 1434 L 668 1159 L 760 1434 L 877 1434 Z M 395 1434 L 395 1362 L 279 1362 L 279 1001 L 197 1001 L 197 1364 L 82 1364 L 82 1434 L 395 1434 Z" unicode="™" />
<glyph horiz-adv-x="2011" d="M 1696 428 C 1744 412 1784 388 1816 354 C 1848 320 1864 278 1864 229 C 1864 155 1831 93 1767 45 C 1702 -2 1619 -27 1518 -27 C 1451 -27 1389 -15 1332 8 C 1275 32 1222 69 1174 119 L 1274 207 C 1304 171 1342 142 1387 121 C 1431 100 1475 90 1518 90 C 1570 90 1616 101 1654 125 C 1692 149 1712 184 1712 231 C 1712 271 1695 302 1663 324 C 1630 346 1584 358 1524 358 L 1395 358 L 1395 479 L 1518 479 C 1564 479 1604 489 1638 511 C 1671 533 1688 563 1688 602 C 1688 636 1674 665 1646 689 C 1618 713 1578 725 1528 725 C 1487 725 1448 714 1412 692 C 1375 670 1344 644 1319 612 L 1217 696 C 1265 747 1315 784 1368 807 C 1421 830 1476 842 1534 842 C 1624 842 1697 819 1753 775 C 1809 731 1837 675 1837 608 C 1837 569 1824 534 1798 503 C 1772 472 1738 447 1696 428 Z M 723 727 L 723 612 L 223 612 L 223 727 L 406 727 L 406 1290 L 223 1219 L 223 1321 C 283 1350 327 1373 357 1391 C 387 1408 421 1430 459 1458 L 553 1458 L 553 727 L 723 727 Z M 1469 1458 L 1614 1458 L 539 -27 L 393 -27 L 1469 1458 Z" unicode="⅓" />
<glyph horiz-adv-x="2011" d="M 1722 428 C 1770 412 1810 388 1842 354 C 1874 320 1890 278 1890 229 C 1890 155 1857 93 1793 45 C 1729 -2 1646 -27 1544 -27 C 1478 -27 1416 -15 1359 8 C 1301 32 1248 69 1200 119 L 1300 207 C 1330 171 1368 142 1413 121 C 1457 100 1501 90 1544 90 C 1597 90 1643 101 1681 125 C 1719 149 1739 184 1739 231 C 1739 271 1722 302 1689 324 C 1656 346 1610 358 1550 358 L 1421 358 L 1421 479 L 1544 479 C 1590 479 1630 489 1664 511 C 1697 533 1714 563 1714 602 C 1714 636 1700 665 1672 689 C 1644 713 1605 725 1554 725 C 1514 725 1475 714 1439 692 C 1402 670 1371 644 1346 612 L 1243 696 C 1291 747 1341 784 1395 807 C 1448 830 1503 842 1561 842 C 1651 842 1724 819 1780 775 C 1836 731 1864 675 1864 608 C 1864 569 1850 534 1824 503 C 1798 472 1764 447 1722 428 Z M 815 737 L 815 614 L 176 614 L 176 711 C 240 755 298 795 350 832 C 402 868 447 904 487 938 C 541 984 582 1029 610 1072 C 638 1115 653 1157 653 1198 C 653 1242 639 1276 612 1301 C 585 1326 546 1339 494 1339 C 442 1339 398 1324 363 1296 C 327 1267 294 1234 262 1196 L 170 1294 C 218 1343 268 1383 322 1413 C 376 1443 436 1458 502 1458 C 591 1458 664 1434 721 1387 C 778 1340 807 1276 807 1196 C 807 1140 790 1088 757 1040 C 723 991 677 941 618 891 C 589 867 557 842 521 816 C 485 790 447 763 408 737 L 815 737 Z M 1495 1458 L 1640 1458 L 563 -27 L 420 -27 L 1495 1458 Z" unicode="⅔" />
<glyph horiz-adv-x="2011" d="M 1696 434 C 1752 410 1795 380 1827 344 C 1858 308 1874 265 1874 217 C 1874 149 1843 91 1781 44 C 1719 -3 1634 -27 1526 -27 C 1415 -27 1330 -4 1271 40 C 1211 84 1182 141 1182 211 C 1182 253 1197 293 1228 331 C 1259 369 1302 399 1358 422 C 1315 442 1280 469 1254 503 C 1227 536 1214 573 1214 614 C 1214 679 1241 734 1297 779 C 1353 823 1430 846 1530 846 C 1630 846 1706 824 1760 782 C 1814 739 1841 686 1841 623 C 1841 583 1827 546 1800 514 C 1773 482 1738 455 1696 434 Z M 723 727 L 723 612 L 223 612 L 223 727 L 406 727 L 406 1290 L 223 1219 L 223 1321 C 283 1350 327 1373 357 1391 C 387 1408 421 1430 459 1458 L 553 1458 L 553 727 L 723 727 Z M 1530 88 C 1591 88 1639 99 1674 123 C 1708 146 1726 176 1726 213 C 1726 249 1706 280 1668 307 C 1629 334 1563 357 1470 377 C 1416 359 1378 336 1357 308 C 1335 280 1325 249 1325 215 C 1325 175 1343 143 1380 121 C 1416 99 1466 88 1530 88 Z M 1583 469 C 1629 489 1660 513 1676 540 C 1692 567 1700 595 1700 623 C 1700 654 1685 680 1655 701 C 1625 722 1582 733 1528 733 C 1476 733 1435 722 1406 702 C 1376 681 1362 655 1362 625 C 1362 589 1379 558 1413 533 C 1447 507 1503 486 1583 469 Z M 1469 1458 L 1614 1458 L 539 -27 L 393 -27 L 1469 1458 Z" unicode="⅛" />
<glyph horiz-adv-x="2011" d="M 659 1044 C 707 1029 747 1004 779 970 C 811 936 827 894 827 846 C 827 771 794 710 730 662 C 666 614 583 590 481 590 C 415 590 353 601 296 625 C 239 648 186 685 137 735 L 238 823 C 268 787 306 759 350 738 C 394 717 438 707 481 707 C 534 707 580 718 618 742 C 656 766 676 801 676 848 C 676 888 659 919 626 941 C 593 963 547 975 487 975 L 358 975 L 358 1096 L 481 1096 C 527 1096 567 1106 601 1128 C 634 1150 651 1180 651 1219 C 651 1253 637 1281 609 1305 C 581 1329 542 1341 492 1341 C 451 1341 412 1330 376 1308 C 339 1286 308 1260 283 1229 L 180 1313 C 228 1363 278 1400 332 1423 C 385 1446 440 1458 498 1458 C 588 1458 661 1436 717 1392 C 773 1348 801 1292 801 1225 C 801 1186 787 1151 761 1120 C 735 1088 701 1063 659 1044 Z M 1720 434 C 1776 410 1819 380 1851 344 C 1882 308 1898 265 1898 217 C 1898 149 1867 91 1805 44 C 1743 -3 1658 -27 1550 -27 C 1439 -27 1354 -4 1295 40 C 1235 84 1206 141 1206 211 C 1206 253 1221 293 1253 331 C 1284 369 1327 399 1382 422 C 1339 442 1304 469 1278 503 C 1252 536 1239 573 1239 614 C 1239 679 1266 734 1322 779 C 1378 823 1455 846 1554 846 C 1653 846 1730 824 1784 782 C 1838 739 1866 686 1866 623 C 1866 583 1852 546 1825 514 C 1797 482 1762 455 1720 434 Z M 1554 88 C 1615 88 1663 99 1697 123 C 1731 146 1749 176 1749 213 C 1749 249 1729 280 1691 307 C 1653 334 1587 357 1495 377 C 1441 359 1403 336 1382 308 C 1360 280 1350 249 1350 215 C 1350 175 1368 143 1404 121 C 1440 99 1490 88 1554 88 Z M 1608 469 C 1654 489 1685 513 1701 540 C 1716 567 1724 595 1724 623 C 1724 654 1709 680 1679 701 C 1649 722 1607 733 1552 733 C 1499 733 1458 722 1428 702 C 1398 681 1384 655 1384 625 C 1384 589 1401 558 1435 533 C 1469 507 1527 486 1608 469 Z M 1493 1458 L 1638 1458 L 563 -27 L 418 -27 L 1493 1458 Z" unicode="⅜" />
<glyph horiz-adv-x="2011" d="M 541 1174 C 625 1174 697 1148 757 1096 C 816 1044 846 976 846 893 C 846 808 813 736 747 678 C 681 619 601 590 506 590 C 440 590 379 601 322 625 C 265 648 212 685 164 735 L 264 823 C 294 787 332 759 376 738 C 420 717 463 707 504 707 C 560 707 606 724 642 758 C 678 792 696 835 696 885 C 696 939 678 981 644 1011 C 610 1040 568 1055 518 1055 C 481 1055 445 1047 410 1033 C 374 1019 343 996 317 965 L 219 1026 L 262 1444 L 809 1444 L 793 1321 L 379 1321 L 352 1122 C 382 1137 412 1149 442 1159 C 472 1169 505 1174 541 1174 Z M 1720 434 C 1776 410 1819 380 1851 344 C 1882 308 1898 265 1898 217 C 1898 149 1867 91 1805 44 C 1743 -3 1658 -27 1550 -27 C 1439 -27 1354 -4 1295 40 C 1235 84 1206 141 1206 211 C 1206 253 1221 293 1253 331 C 1284 369 1327 399 1382 422 C 1339 442 1304 469 1278 503 C 1252 536 1239 573 1239 614 C 1239 679 1266 734 1322 779 C 1378 823 1455 846 1554 846 C 1653 846 1730 824 1784 782 C 1838 739 1866 686 1866 623 C 1866 583 1852 546 1825 514 C 1797 482 1762 455 1720 434 Z M 1554 88 C 1615 88 1663 99 1697 123 C 1731 146 1749 176 1749 213 C 1749 249 1729 280 1691 307 C 1653 334 1587 357 1495 377 C 1441 359 1403 336 1382 308 C 1360 280 1350 249 1350 215 C 1350 175 1368 143 1404 121 C 1440 99 1490 88 1554 88 Z M 1608 469 C 1654 489 1685 513 1701 540 C 1716 567 1724 595 1724 623 C 1724 654 1709 680 1679 701 C 1649 722 1607 733 1552 733 C 1499 733 1458 722 1428 702 C 1398 681 1384 655 1384 625 C 1384 589 1401 558 1435 533 C 1469 507 1527 486 1608 469 Z M 1493 1458 L 1638 1458 L 563 -27 L 418 -27 L 1493 1458 Z" unicode="⅝" />
<glyph horiz-adv-x="2011" d="M 1696 434 C 1752 410 1795 380 1827 344 C 1858 308 1874 265 1874 217 C 1874 149 1843 91 1781 44 C 1719 -3 1634 -27 1526 -27 C 1415 -27 1330 -4 1271 40 C 1211 84 1182 141 1182 211 C 1182 253 1197 293 1228 331 C 1259 369 1302 399 1358 422 C 1315 442 1280 469 1254 503 C 1227 536 1214 573 1214 614 C 1214 679 1241 734 1297 779 C 1353 823 1430 846 1530 846 C 1630 846 1706 824 1760 782 C 1814 739 1841 686 1841 623 C 1841 583 1827 546 1800 514 C 1773 482 1738 455 1696 434 Z M 1530 88 C 1591 88 1639 99 1674 123 C 1708 146 1726 176 1726 213 C 1726 249 1706 280 1668 307 C 1629 334 1563 357 1470 377 C 1416 359 1378 336 1357 308 C 1335 280 1325 249 1325 215 C 1325 175 1343 143 1380 121 C 1416 99 1466 88 1530 88 Z M 1583 469 C 1629 489 1660 513 1676 540 C 1692 567 1700 595 1700 623 C 1700 654 1685 680 1655 701 C 1625 722 1582 733 1528 733 C 1476 733 1435 722 1406 702 C 1376 681 1362 655 1362 625 C 1362 589 1379 558 1413 533 C 1447 507 1503 486 1583 469 Z M 877 1444 L 877 1356 C 792 1235 720 1119 660 1009 C 600 899 561 764 543 604 L 379 604 C 403 752 450 887 520 1011 C 590 1135 655 1238 717 1321 L 233 1321 L 248 1444 L 877 1444 Z M 1424 1458 L 1569 1458 L 494 -27 L 348 -27 L 1424 1458 Z" unicode="⅞" />
<glyph horiz-adv-x="0" d="" unicode="∂" />
<glyph horiz-adv-x="0" d="" unicode="∆" />
<glyph horiz-adv-x="0" d="" unicode="∏" />
<glyph horiz-adv-x="1167" d="M 1057 625 L 1057 477 L 113 477 L 113 625 L 1057 625 Z" unicode="−" />
<glyph horiz-adv-x="1087" d="M 836 1434 L 977 1434 L 150 -317 L 8 -317 L 836 1434 Z" unicode="∕" />
<glyph horiz-adv-x="625" d="M 311 694 C 351 694 384 680 412 653 C 439 625 453 593 453 555 C 453 516 439 483 412 455 C 384 427 351 414 311 414 C 272 414 239 427 213 455 C 187 483 174 516 174 555 C 174 593 187 625 213 653 C 239 680 272 694 311 694 Z" unicode="∙" />
<glyph horiz-adv-x="1556" d="M 1296 1497 L 1436 1497 L 915 -57 L 811 -57 L 414 791 L 197 690 L 147 784 L 528 967 L 872 217 L 1296 1497 Z" unicode="√" />
<glyph horiz-adv-x="1661" d="M 1190 977 C 1292 977 1374 938 1435 861 C 1495 784 1526 685 1526 565 C 1526 421 1491 313 1421 242 C 1351 170 1265 135 1163 135 C 1091 135 1024 157 964 203 C 903 248 855 310 821 389 C 778 303 728 240 670 198 C 612 156 546 135 471 135 C 368 135 286 173 226 250 C 165 327 135 425 135 545 C 135 687 170 794 240 867 C 310 940 397 977 500 977 C 571 977 637 954 697 908 C 757 862 805 800 840 723 C 882 806 932 869 990 912 C 1048 955 1114 977 1190 977 Z M 698 455 C 713 482 727 508 741 534 C 754 559 767 588 780 621 C 747 686 707 735 659 768 C 611 800 562 817 512 817 C 438 817 381 793 340 746 C 299 699 279 632 279 545 C 279 472 295 412 328 364 C 360 316 409 293 473 293 C 531 293 575 307 607 335 C 638 363 668 403 698 455 Z M 1151 293 C 1223 293 1279 316 1320 363 C 1361 410 1382 477 1382 565 C 1382 637 1365 697 1333 745 C 1300 793 1252 817 1188 817 C 1130 817 1085 803 1054 776 C 1022 748 991 708 961 655 C 944 628 929 601 916 573 C 903 545 891 517 881 489 C 913 425 954 376 1002 343 C 1050 309 1100 293 1151 293 Z" unicode="∞" />
<glyph horiz-adv-x="0" d="" unicode="∫" />
<glyph horiz-adv-x="1167" d="M 1061 952 C 1050 842 1021 758 974 701 C 927 644 861 616 776 616 C 738 616 701 624 667 641 C 633 658 600 678 569 702 C 561 709 553 716 545 722 C 537 728 529 733 522 739 C 504 752 485 765 464 779 C 443 792 420 799 395 799 C 371 799 351 794 335 784 C 319 774 305 761 295 744 C 284 727 276 707 271 685 C 265 663 262 639 262 614 L 111 614 C 119 721 147 803 195 860 C 243 917 309 946 395 946 C 418 946 440 943 461 937 C 481 931 501 924 520 915 C 538 905 556 895 573 883 C 589 871 605 860 621 848 C 631 840 643 831 655 821 C 667 811 680 802 694 794 C 707 786 721 779 735 774 C 749 768 764 766 778 766 C 800 766 820 771 836 782 C 852 792 866 806 877 824 C 887 841 895 861 900 883 C 905 905 908 928 909 952 L 1061 952 Z M 1061 522 C 1050 412 1021 328 974 271 C 927 214 861 186 776 186 C 738 186 701 194 667 211 C 633 228 600 248 569 272 C 561 279 553 286 545 292 C 537 298 529 303 522 309 C 504 322 485 335 464 349 C 443 362 420 369 395 369 C 371 369 351 364 335 354 C 319 344 305 331 295 314 C 284 297 276 277 271 255 C 265 233 262 209 262 184 L 111 184 C 119 291 147 373 195 430 C 243 487 309 516 395 516 C 418 516 440 513 461 508 C 481 502 501 495 519 486 C 537 477 554 467 570 456 C 586 445 602 434 618 422 C 628 414 640 405 653 395 C 666 385 679 375 693 367 C 707 358 721 351 735 345 C 749 339 764 336 778 336 C 800 336 820 341 836 352 C 852 362 866 376 877 394 C 887 411 895 431 900 453 C 905 475 908 498 909 522 L 1061 522 Z" unicode="≈" />
<glyph horiz-adv-x="1167" d="M 1057 305 L 555 305 L 432 0 L 291 0 L 414 305 L 113 305 L 113 455 L 473 455 L 553 653 L 113 653 L 113 803 L 612 803 L 735 1108 L 879 1108 L 756 803 L 1057 803 L 1057 653 L 694 653 L 614 455 L 1057 455 L 1057 305 Z" unicode="≠" />
<glyph horiz-adv-x="1167" d="M 1061 244 L 106 668 L 106 778 L 1061 1200 L 1061 1024 L 344 725 L 1061 420 L 1061 244 Z M 1061 0 L 106 0 L 106 147 L 1061 147 L 1061 0 Z" unicode="≤" />
<glyph horiz-adv-x="1167" d="M 1059 668 L 104 244 L 104 420 L 821 725 L 104 1024 L 104 1200 L 1059 778 L 1059 668 Z M 1059 0 L 104 0 L 104 147 L 1059 147 L 1059 0 Z" unicode="≥" />
<glyph horiz-adv-x="1096" d="M 987 1153 L 987 274 L 109 274 L 109 1153 L 987 1153 Z" unicode="■" />
<glyph horiz-adv-x="1200" d="M 600 1286 L 1159 156 L 41 156 L 600 1286 Z" unicode="▲" />
<glyph horiz-adv-x="1239" d="M 109 1276 L 1239 717 L 109 158 L 109 1276 Z" unicode="▶" />
<glyph horiz-adv-x="1200" d="M 41 1264 L 1159 1264 L 600 133 L 41 1264 Z" unicode="▼" />
<glyph horiz-adv-x="1239" d="M 1130 1276 L 1130 158 L 0 717 L 1130 1276 Z" unicode="◀" />
<glyph horiz-adv-x="993" d="M 545 1386 L 905 707 L 545 0 L 434 0 L 72 707 L 434 1386 L 545 1386 Z M 489 100 L 793 707 L 489 1286 L 182 707 L 489 100 Z" unicode="◊" />
<glyph horiz-adv-x="1548" d="M 1516 741 C 1516 672 1507 606 1489 543 C 1471 480 1447 421 1415 367 C 1383 311 1344 261 1299 216 C 1254 171 1204 133 1150 101 C 1094 69 1035 44 972 26 C 908 8 842 0 774 0 C 705 0 639 8 576 26 C 512 44 453 69 399 101 C 343 133 293 171 249 216 C 204 261 166 311 134 367 C 102 421 77 480 59 543 C 41 606 33 672 33 741 C 33 809 41 875 59 939 C 77 1002 102 1061 134 1116 C 166 1170 204 1220 249 1265 C 293 1310 343 1349 399 1381 C 453 1413 512 1437 576 1455 C 639 1472 705 1481 774 1481 C 842 1481 908 1472 972 1455 C 1035 1437 1094 1413 1150 1381 C 1204 1349 1254 1310 1299 1265 C 1344 1220 1383 1170 1415 1116 C 1447 1061 1471 1002 1489 939 C 1507 875 1516 809 1516 741 Z" unicode="⬤" />
<glyph horiz-adv-x="1081" d="M 932 1040 L 932 0 L 757 0 L 757 1040 L 932 1040 Z M 934 1434 L 934 1233 L 755 1233 L 755 1434 L 934 1434 Z M 623 1432 L 623 1290 C 607 1292 589 1294 567 1296 C 545 1298 526 1300 510 1300 C 468 1300 432 1292 403 1276 C 374 1260 360 1228 360 1180 L 360 1040 L 565 1040 L 565 913 L 367 913 L 367 0 L 193 0 L 193 913 L 29 913 L 29 1040 L 193 1040 L 193 1161 C 193 1203 198 1240 210 1272 C 221 1303 236 1330 256 1354 C 281 1383 312 1405 348 1421 C 384 1436 423 1444 463 1444 C 485 1444 511 1443 539 1441 C 567 1439 595 1436 623 1432 Z" unicode="ﬁ" />
<glyph horiz-adv-x="1081" d="M 623 1432 L 623 1290 C 607 1292 589 1294 567 1296 C 545 1298 526 1300 510 1300 C 468 1300 432 1292 403 1276 C 374 1260 360 1228 360 1180 L 360 1040 L 565 1040 L 565 913 L 367 913 L 367 0 L 193 0 L 193 913 L 29 913 L 29 1040 L 193 1040 L 193 1161 C 193 1203 198 1240 210 1272 C 221 1303 236 1330 256 1354 C 281 1383 312 1405 348 1421 C 384 1436 423 1444 463 1444 C 485 1444 511 1443 539 1441 C 567 1439 595 1436 623 1432 Z M 930 1434 L 930 0 L 755 0 L 755 1434 L 930 1434 Z" unicode="ﬂ" />
</font>
</defs>
</svg>
